<svg width="284" height="284" viewBox="0 0 284 284" fill="none" xmlns="http://www.w3.org/2000/svg">
<path fill-rule="evenodd" clip-rule="evenodd" d="M129.795 61.2485H149.759C194.824 61.2485 231.671 98.0956 231.671 143.16C231.671 188.198 194.824 225.072 149.759 225.072H129.795C84.7307 225.072 47.8837 188.198 47.8837 143.16C47.8837 98.0956 84.7307 61.2485 129.795 61.2485Z" fill="#FBCA8F"/>
<path fill-rule="evenodd" clip-rule="evenodd" d="M129.795 61.1169H149.76C194.824 61.1169 235.569 104.18 231.671 143.055L230.038 159.49H148.285L139.619 141.079L131.481 159.49H49.5167L47.8837 143.055C44.1173 105.444 83.0977 61.1169 129.795 61.1169Z" fill="#341B14"/>
<path d="M129.795 61.2486H149.759C194.824 61.2486 231.671 98.0956 231.671 143.16C231.671 188.198 194.824 225.072 149.759 225.072H129.795C84.7307 225.072 47.8837 188.198 47.8837 143.16C47.8837 98.0956 84.7307 61.2486 129.795 61.2486Z" stroke="black" stroke-width="6.68862" stroke-miterlimit="22.926"/>
<path d="M49.5167 159.49H131.481L139.619 141.08L148.285 159.49H230.038" stroke="black" stroke-width="6.68862" stroke-miterlimit="22.926"/>
<path fill-rule="evenodd" clip-rule="evenodd" d="M162.112 140.236C157.213 137.471 148.627 136.97 145.993 143.055C143.043 149.876 142.543 171.605 148.363 179.744C153.131 186.407 166.589 184.932 172.805 181.324C179.074 177.715 183.024 170.288 178.494 158.778C175.018 150.008 168.802 144.055 162.112 140.236Z" fill="white"/>
<path d="M162.112 140.237C157.213 137.471 148.627 136.971 145.993 143.055C143.043 149.876 142.543 171.605 148.363 179.744C153.131 186.407 166.589 184.932 172.805 181.324C179.074 177.716 183.024 170.288 178.494 158.779C175.018 150.008 168.802 144.056 162.112 140.237Z" stroke="#110F0D" stroke-width="3.82303" stroke-miterlimit="22.926"/>
<path fill-rule="evenodd" clip-rule="evenodd" d="M117.443 140.236C122.342 137.471 130.901 136.97 133.535 143.055C136.485 149.876 137.012 171.605 131.165 179.744C126.398 186.407 112.939 184.932 106.723 181.324C100.481 177.715 96.5302 170.288 101.06 158.778C104.537 150.008 110.726 144.055 117.443 140.236Z" fill="white"/>
<path d="M117.443 140.237C122.342 137.471 130.901 136.971 133.535 143.055C136.485 149.876 137.012 171.605 131.165 179.744C126.398 186.407 112.939 184.932 106.723 181.324C100.481 177.716 96.5302 170.288 101.06 158.779C104.537 150.008 110.726 144.056 117.443 140.237Z" stroke="#110F0D" stroke-width="3.82303" stroke-miterlimit="22.926"/>
<path d="M125.95 207.03C131.955 213.141 147.257 213.457 153.605 207.03" stroke="#110F0D" stroke-width="3.82303" stroke-miterlimit="22.926" stroke-linecap="round"/>
<path fill-rule="evenodd" clip-rule="evenodd" d="M156.844 141.922C151.287 141.922 146.783 148.718 146.783 157.093C146.783 165.442 151.287 172.238 156.844 172.238C162.402 172.238 166.906 165.442 166.906 157.093C166.906 148.718 162.402 141.922 156.844 141.922Z" fill="black"/>
<path fill-rule="evenodd" clip-rule="evenodd" d="M156.844 143.924C152.894 143.924 149.68 147.111 149.68 151.009C149.68 154.907 152.894 158.068 156.844 158.068C160.795 158.068 164.008 154.907 164.008 151.009C164.008 147.111 160.795 143.924 156.844 143.924Z" fill="white"/>
<path fill-rule="evenodd" clip-rule="evenodd" d="M160.005 160.175C158.425 160.175 157.16 161.439 157.16 162.967C157.16 164.52 158.425 165.785 160.005 165.785C161.559 165.785 162.823 164.52 162.823 162.967C162.823 161.439 161.559 160.175 160.005 160.175Z" fill="white"/>
<path fill-rule="evenodd" clip-rule="evenodd" d="M122.421 141.922C127.978 141.922 132.482 148.718 132.482 157.093C132.482 165.442 127.978 172.238 122.421 172.238C116.863 172.238 112.359 165.442 112.359 157.093C112.359 148.718 116.863 141.922 122.421 141.922Z" fill="black"/>
<path fill-rule="evenodd" clip-rule="evenodd" d="M122.421 143.924C126.371 143.924 129.585 147.111 129.585 151.009C129.585 154.907 126.371 158.068 122.421 158.068C118.47 158.068 115.257 154.907 115.257 151.009C115.257 147.111 118.47 143.924 122.421 143.924Z" fill="white"/>
<path fill-rule="evenodd" clip-rule="evenodd" d="M119.26 160.175C120.84 160.175 122.104 161.439 122.104 162.967C122.104 164.52 120.84 165.785 119.26 165.785C117.706 165.785 116.442 164.52 116.442 162.967C116.442 161.439 117.706 160.175 119.26 160.175Z" fill="white"/>
<path d="M85.7052 190.174L96.6355 183.536L85.7842 195.757L101.929 185.169L92.9482 198.365L105.485 189.62L103.246 198.417L112.438 192.228L110.779 198.786L116.547 193.677L118.47 197.469" stroke="#ED1F23" stroke-width="3.82303" stroke-miterlimit="22.926" stroke-linecap="round" stroke-linejoin="round"/>
<path d="M175.465 191.543L180.233 185.67L181.55 192.281L184.71 184.248L187.476 192.36L188.819 181.904L190.636 191.254L193.823 184.432L193.981 188.33" stroke="#ED1F23" stroke-width="3.82303" stroke-miterlimit="22.926" stroke-linecap="round" stroke-linejoin="round"/>
<path d="M95.0026 141.501C106.644 140.105 117.127 134.39 126.477 124.566" stroke="#110F0D" stroke-width="3.82303" stroke-miterlimit="22.926" stroke-linecap="round"/>
<path d="M184.974 141.501C173.358 140.105 162.876 134.39 153.526 124.566" stroke="#110F0D" stroke-width="3.82303" stroke-miterlimit="22.926" stroke-linecap="round"/>
</svg>
