<svg width="284" height="284" viewBox="0 0 284 284" fill="none" xmlns="http://www.w3.org/2000/svg">
<path fill-rule="evenodd" clip-rule="evenodd" d="M129.795 61.2223H149.76C194.824 61.2223 231.697 98.0957 231.697 143.134C231.697 188.198 194.824 225.045 149.76 225.045H129.795C84.7308 225.045 47.8838 188.198 47.8838 143.134C47.8838 98.0957 84.7308 61.2223 129.795 61.2223Z" fill="#FBCA8F"/>
<path fill-rule="evenodd" clip-rule="evenodd" d="M129.795 61.1169H149.76C194.824 61.1169 235.569 104.18 231.697 143.028L230.038 159.49H148.285L139.619 141.053L131.481 159.49H49.5167L47.8837 143.028C44.1173 105.418 83.0977 61.1169 129.795 61.1169Z" fill="#341B14"/>
<path d="M49.5167 159.49H131.481L139.619 141.053L148.285 159.49H230.038" stroke="black" stroke-width="6.68862" stroke-miterlimit="22.926"/>
<path d="M129.795 61.2223H149.76C194.824 61.2223 231.697 98.0957 231.697 143.134C231.697 188.198 194.824 225.045 149.76 225.045H129.795C84.7308 225.045 47.8838 188.198 47.8838 143.134C47.8838 98.0957 84.7308 61.2223 129.795 61.2223Z" stroke="black" stroke-width="6.68862" stroke-miterlimit="22.926"/>
<path fill-rule="evenodd" clip-rule="evenodd" d="M101.851 151.088C107.434 146.742 115.125 144.319 124.054 143.002L120.524 133.784C107.935 134.706 102.325 142.528 101.851 151.088Z" fill="#231F20"/>
<path fill-rule="evenodd" clip-rule="evenodd" d="M152.604 144.793C165.457 142.686 174.491 144.662 177.599 152.985C169.592 151.562 161.269 151.826 152.604 154.117V144.793Z" fill="#231F20"/>
<path fill-rule="evenodd" clip-rule="evenodd" d="M95.2925 165.943H184.236C185.659 191.57 147.389 192.281 140.094 174.661C131.323 193.229 95.0028 190.674 95.2925 165.943Z" fill="#231F20"/>
<path fill-rule="evenodd" clip-rule="evenodd" d="M140.331 167.207H158.003C158.399 174.344 170.593 174.213 170.751 167.207H182.761C182.261 178.506 175.123 184.643 161.796 184.722C148.996 184.801 141.674 178.69 140.331 167.207Z" fill="white"/>
<path fill-rule="evenodd" clip-rule="evenodd" d="M161.664 167.707C162.639 167.707 163.429 168.498 163.429 169.472C163.429 170.473 162.639 171.237 161.664 171.237C160.69 171.237 159.9 170.473 159.9 169.472C159.9 168.498 160.69 167.707 161.664 167.707Z" fill="white"/>
<path fill-rule="evenodd" clip-rule="evenodd" d="M96.9254 167.207H114.598C114.967 174.344 127.188 174.213 127.346 167.207H139.33C138.856 178.506 131.692 184.643 118.391 184.722C105.591 184.801 98.2686 178.69 96.9254 167.207Z" fill="white"/>
<path fill-rule="evenodd" clip-rule="evenodd" d="M118.259 167.707C119.234 167.707 120.024 168.498 120.024 169.472C120.024 170.473 119.234 171.237 118.259 171.237C117.285 171.237 116.495 170.473 116.495 169.472C116.495 168.498 117.285 167.707 118.259 167.707Z" fill="white"/>
<path fill-rule="evenodd" clip-rule="evenodd" d="M120.603 216.828C118.97 216.117 117.706 215.248 116.811 214.168C127.399 204.291 141.832 199.761 162.85 204.528C144.439 197.601 128.663 200.209 115.388 211.771C114.335 210.533 113.703 209.084 113.387 207.478C110.858 212.324 113.597 217.618 120.603 216.828Z" fill="#231F20"/>
</svg>
