<svg width="284" height="284" viewBox="0 0 284 284" fill="none" xmlns="http://www.w3.org/2000/svg">
<path fill-rule="evenodd" clip-rule="evenodd" d="M132.243 70.6511H151.812C195.955 70.6511 232.091 106.787 232.091 150.93C232.091 195.099 195.955 231.208 151.812 231.208H132.243C88.0739 231.208 51.9644 195.099 51.9644 150.93C51.9644 106.787 88.0739 70.6511 132.243 70.6511Z" fill="#FBCA8F"/>
<path fill-rule="evenodd" clip-rule="evenodd" d="M132.243 70.546H151.812C195.955 70.546 235.91 112.74 232.091 150.825L230.484 166.944H150.363L141.856 148.876L133.902 166.944H53.5709L51.9643 150.825C48.2506 113.951 86.4672 70.546 132.243 70.546Z" fill="#341B14"/>
<path d="M53.571 166.943H133.902L141.856 148.875L150.364 166.943H230.484" stroke="black" stroke-width="6.68862" stroke-miterlimit="22.926"/>
<path d="M132.243 70.6511H151.812C195.955 70.6511 232.091 106.787 232.091 150.93C232.091 195.099 195.955 231.208 151.812 231.208H132.243C88.0739 231.208 51.9644 195.099 51.9644 150.93C51.9644 106.787 88.0739 70.6511 132.243 70.6511Z" stroke="black" stroke-width="6.68862" stroke-miterlimit="22.926"/>
<path fill-rule="evenodd" clip-rule="evenodd" d="M45.9329 73.5486L66.6347 52.8468C78.0654 64.2775 78.0654 82.8196 66.6347 94.2503C55.2039 105.681 36.6619 105.681 25.2312 94.2503L45.9329 73.5486Z" fill="#341B14"/>
<path fill-rule="evenodd" clip-rule="evenodd" d="M238.122 73.5486L217.42 52.8468C205.99 64.2775 205.99 82.8196 217.42 94.2503C228.851 105.681 247.367 105.681 258.824 94.2503L238.122 73.5486Z" fill="#341B14"/>
<path d="M45.9329 73.5484L66.6347 52.8467C78.0654 64.2774 78.0654 82.8194 66.6347 94.2502C55.2039 105.681 36.6619 105.681 25.2312 94.2502L45.9329 73.5484Z" stroke="black" stroke-width="6.68862" stroke-miterlimit="22.926"/>
<path d="M238.122 73.5484L217.42 52.8467C205.99 64.2774 205.99 82.8194 217.42 94.2502C228.851 105.681 247.367 105.681 258.824 94.2502L238.122 73.5484Z" stroke="black" stroke-width="6.68862" stroke-miterlimit="22.926"/>
<path fill-rule="evenodd" clip-rule="evenodd" d="M164.876 134.6C158.291 133.02 152.286 129.939 147.677 122.827C146.808 121.853 146.176 122.748 146.518 123.512C150.469 131.914 156.421 135.285 164.876 135.549C165.956 135.443 166.166 134.943 164.876 134.6Z" fill="white"/>
<path fill-rule="evenodd" clip-rule="evenodd" d="M121.102 134.784C127.66 133.204 133.691 130.096 138.274 123.011C139.143 122.01 139.802 122.932 139.459 123.67C135.509 132.098 129.556 135.469 121.075 135.706C120.022 135.627 119.811 135.127 121.102 134.784Z" fill="white"/>
<path fill-rule="evenodd" clip-rule="evenodd" d="M110.567 149.745C113.516 144.056 118.363 139.526 126.633 137.261C133.77 136.128 137.827 134.495 140.065 132.573C140.645 132.23 140.855 132.862 140.539 133.415C139.96 134.469 139.091 135.259 137.8 135.759C140.776 137.761 142.752 140.527 144.121 143.766C145.359 140.5 147.545 138.077 150.574 136.365C149.257 135.443 148.204 134.337 147.519 132.968C147.124 132.283 147.335 131.888 147.809 132.362C154.63 137.287 161.873 140.421 169.459 142.239C177.702 149.561 180.178 156.567 180.363 166.022C180.942 195.073 150.021 187.988 143.805 163.783C125.553 206.03 93.5258 182.404 110.567 149.745Z" fill="#231F20"/>
<path fill-rule="evenodd" clip-rule="evenodd" d="M113.253 182.377C124.947 192.623 148.388 168.313 143.173 145.162C142.041 140.131 138.643 137.866 135.562 136.865C128.345 140.395 121.471 136.892 113.885 147.427C104.957 159.911 106.063 176.083 113.253 182.377Z" fill="white"/>
<path fill-rule="evenodd" clip-rule="evenodd" d="M130.241 142.739C137.8 141.923 141.646 149.376 138.801 159.411C135.983 169.42 127.528 178.19 119.969 179.007C112.41 179.823 108.565 172.37 111.41 162.361C114.228 152.353 122.656 143.556 130.241 142.739Z" fill="#A7A6A6"/>
<path fill-rule="evenodd" clip-rule="evenodd" d="M128.002 149.455C133.349 148.349 136.404 152.8 134.824 159.411C133.244 165.995 127.607 172.264 122.261 173.37C116.888 174.476 113.859 170.025 115.439 163.414C117.02 156.803 122.656 150.561 128.002 149.455Z" fill="black"/>
<path fill-rule="evenodd" clip-rule="evenodd" d="M121.365 151.22C124.131 150.666 125.711 152.958 124.895 156.382C124.078 159.779 121.155 163.019 118.389 163.598C115.624 164.178 114.043 161.86 114.86 158.436C115.676 155.039 118.6 151.799 121.365 151.22Z" fill="white"/>
<path fill-rule="evenodd" clip-rule="evenodd" d="M131.058 165.047C133.85 164.468 135.43 166.759 134.587 170.183C133.771 173.607 130.847 176.82 128.108 177.4C125.316 177.979 123.736 175.661 124.552 172.264C125.395 168.84 128.292 165.6 131.058 165.047Z" fill="white"/>
<path fill-rule="evenodd" clip-rule="evenodd" d="M144.912 145.267C146.834 141.659 148.704 138.735 151.786 137.471L168.537 143.845C178.756 152.352 182.075 169.077 175.279 179.217C171.039 185.565 161.531 185.143 152.971 177.057C148.968 173.238 146.149 168.208 144.833 161.729C146.07 155.803 146.307 150.245 144.912 145.267Z" fill="white"/>
<path fill-rule="evenodd" clip-rule="evenodd" d="M155.842 141.211C148.283 140.395 144.438 147.848 147.282 157.857C150.1 167.865 158.555 176.662 166.114 177.479C173.673 178.295 177.518 170.842 174.674 160.833C171.855 150.798 163.427 142.028 155.842 141.211Z" fill="#A7A6A6"/>
<path fill-rule="evenodd" clip-rule="evenodd" d="M158.081 147.927C152.734 146.821 149.679 151.272 151.259 157.857C152.839 164.468 158.476 170.71 163.822 171.816C169.195 172.922 172.251 168.471 170.644 161.887C169.064 155.276 163.427 149.034 158.081 147.927Z" fill="black"/>
<path fill-rule="evenodd" clip-rule="evenodd" d="M164.718 149.692C161.952 149.113 160.372 151.43 161.189 154.828C162.005 158.252 164.929 161.491 167.694 162.045C170.46 162.624 172.04 160.333 171.223 156.909C170.407 153.485 167.483 150.271 164.718 149.692Z" fill="white"/>
<path fill-rule="evenodd" clip-rule="evenodd" d="M155.025 163.493C152.234 162.94 150.68 165.231 151.496 168.655C152.313 172.053 155.236 175.292 158.002 175.872C160.767 176.451 162.347 174.134 161.531 170.71C160.688 167.312 157.791 164.072 155.025 163.493Z" fill="white"/>
<path fill-rule="evenodd" clip-rule="evenodd" d="M179.019 200.893C182.601 206.503 181.206 210.849 175.069 209.585C151.075 205.898 129.372 210.322 109.856 222.491C107.037 224.255 102.349 225.493 103.166 217.644C108.934 180.797 157.738 171.605 179.019 200.893Z" fill="#231F20"/>
<path fill-rule="evenodd" clip-rule="evenodd" d="M119.021 192.518C132.164 183.826 146.755 181.193 163.796 189.173C161.136 193.256 156.948 196.179 149.837 196.969C159.924 198.049 169.432 200.762 176.491 208.927C152.313 204.607 129.161 209.216 107.011 223.149C109.144 211.719 116.914 202.79 133.323 197.759C127.686 197.391 122.709 195.968 119.021 192.518Z" fill="white"/>
</svg>
