<svg width="284" height="284" viewBox="0 0 284 284" fill="none" xmlns="http://www.w3.org/2000/svg">
<path fill-rule="evenodd" clip-rule="evenodd" d="M129.795 61.2223H149.786C194.85 61.2223 231.697 98.0957 231.697 143.134C231.697 188.198 194.85 225.045 149.786 225.045H129.795C84.7571 225.045 47.8838 188.198 47.8838 143.134C47.8838 98.0957 84.7571 61.2223 129.795 61.2223Z" fill="#FBCA8F"/>
<path fill-rule="evenodd" clip-rule="evenodd" d="M129.795 61.1169H149.786C194.85 61.1169 235.595 104.18 231.697 143.028L230.064 159.49H148.311L139.619 141.053L131.507 159.49H49.543L47.8837 143.028C44.1173 105.418 83.0978 61.1169 129.795 61.1169Z" fill="#341B14"/>
<path fill-rule="evenodd" clip-rule="evenodd" d="M115.652 185.67C131.218 190.753 147.178 190.41 163.008 185.564C165.536 184.8 167.274 184.958 167.222 186.144C166.669 198.312 161.691 209.321 149.602 217.723C142.648 222.543 135.3 222.701 128.505 217.723C118.022 210.006 111.859 200.05 111.727 186.67C111.727 184.774 112.781 184.748 115.652 185.67Z" fill="#110F0D"/>
<path fill-rule="evenodd" clip-rule="evenodd" d="M119.102 205.239C132.034 199.049 145.545 199.339 159.531 205.239C157.029 209.506 153.631 213.693 148.1 217.117C142.596 220.515 136.38 220.831 130.506 217.117C125.002 213.614 121.341 209.611 119.102 205.239Z" fill="#ED1C24"/>
<path d="M49.5431 159.49H131.507L139.619 141.053L148.311 159.49H230.065" stroke="black" stroke-width="6.68862" stroke-miterlimit="22.926"/>
<path fill-rule="evenodd" clip-rule="evenodd" d="M148.706 176.9C158.478 165.732 169.25 164.863 181.023 176.9C182.05 177.953 184.105 177.242 183.104 175.952C170.804 159.727 157.266 159.306 146.941 175.978C145.993 177.506 147.468 178.296 148.706 176.9Z" fill="black"/>
<path fill-rule="evenodd" clip-rule="evenodd" d="M98.6901 176.9C108.462 165.732 119.207 164.863 131.007 176.9C132.034 177.953 134.088 177.242 133.088 175.952C120.761 159.727 107.25 159.306 96.9254 175.978C95.9772 177.506 97.4522 178.296 98.6901 176.9Z" fill="black"/>
<path fill-rule="evenodd" clip-rule="evenodd" d="M113.545 187.224C130.559 192.333 147.863 192.597 165.536 187.224C165.536 189.568 165.325 191.807 164.298 194.23C147.574 197.733 130.981 197.785 114.493 194.23C113.861 192.228 113.413 190.042 113.545 187.224Z" fill="white"/>
<path d="M129.795 61.2223H149.786C194.85 61.2223 231.697 98.0957 231.697 143.134C231.697 188.198 194.85 225.045 149.786 225.045H129.795C84.7571 225.045 47.8838 188.198 47.8838 143.134C47.8838 98.0957 84.7571 61.2223 129.795 61.2223Z" stroke="black" stroke-width="6.68862" stroke-miterlimit="22.926"/>
</svg>
