<svg width="284" height="284" viewBox="0 0 284 284" fill="none" xmlns="http://www.w3.org/2000/svg">
<path fill-rule="evenodd" clip-rule="evenodd" d="M132.23 70.6511H151.799C195.968 70.6511 232.078 106.761 232.078 150.93C232.078 195.072 195.968 231.208 151.799 231.208H132.23C88.0871 231.208 51.9512 195.072 51.9512 150.93C51.9512 106.761 88.0871 70.6511 132.23 70.6511Z" fill="#FBCA8F"/>
<path fill-rule="evenodd" clip-rule="evenodd" d="M132.23 70.546H151.799C195.968 70.546 235.897 112.74 232.078 150.825L230.471 166.944H150.35L141.843 148.876L133.889 166.944H53.5578L51.9512 150.825C48.2638 113.951 86.4541 70.546 132.23 70.546Z" fill="#341B14"/>
<path d="M132.23 70.6511H151.799C195.968 70.6511 232.078 106.761 232.078 150.93C232.078 195.072 195.968 231.208 151.799 231.208H132.23C88.0871 231.208 51.9512 195.072 51.9512 150.93C51.9512 106.761 88.0871 70.6511 132.23 70.6511Z" stroke="black" stroke-width="6.68862" stroke-miterlimit="22.926"/>
<path d="M53.5578 166.943H133.889L141.843 148.875L150.061 166.943H230.471" stroke="black" stroke-width="6.68862" stroke-miterlimit="22.926"/>
<path fill-rule="evenodd" clip-rule="evenodd" d="M176.004 162.045C169.156 160.122 162.598 157.146 156.224 151.167C154.064 149.113 151.219 149.376 149.85 151.641C145.82 158.226 144.293 165.679 144.661 173.001C144.951 178.611 146.005 184.142 149.929 189.173C153.485 193.677 158.357 194.335 163.388 194.151C168.102 193.993 172.975 193.255 176.925 189.568C180.797 185.986 180.903 178.348 180.428 168.735C180.27 165.495 179.164 162.914 176.004 162.045Z" fill="white"/>
<path d="M176.004 162.044C169.156 160.122 162.598 157.146 156.224 151.167C154.064 149.112 151.219 149.376 149.85 151.641C145.82 158.225 144.293 165.679 144.661 173.001C144.951 178.611 146.005 184.142 149.929 189.173C153.485 193.676 158.357 194.335 163.388 194.151C168.102 193.993 172.975 193.255 176.925 189.568C180.797 185.986 180.903 178.348 180.428 168.734C180.27 165.495 179.164 162.914 176.004 162.044Z" stroke="#110F0D" stroke-width="3.82303" stroke-miterlimit="22.926"/>
<path fill-rule="evenodd" clip-rule="evenodd" d="M108.13 162.045C114.952 160.122 121.51 157.146 127.884 151.167C130.07 149.113 132.915 149.376 134.284 151.641C138.288 158.226 139.841 165.679 139.473 173.001C139.183 178.611 138.103 184.142 134.179 189.173C130.649 193.677 125.751 194.335 120.746 194.151C116.005 193.993 111.159 193.255 107.209 189.568C103.311 185.986 103.231 178.348 103.706 168.735C103.864 165.495 104.97 162.914 108.13 162.045Z" fill="white"/>
<path d="M108.13 162.044C114.952 160.122 121.51 157.146 127.884 151.167C130.07 149.112 132.915 149.376 134.284 151.641C138.288 158.225 139.841 165.679 139.473 173.001C139.183 178.611 138.103 184.142 134.179 189.173C130.649 193.676 125.751 194.335 120.746 194.151C116.005 193.993 111.159 193.255 107.209 189.568C103.311 185.986 103.231 178.348 103.706 168.734C103.864 165.495 104.97 162.914 108.13 162.044Z" stroke="#110F0D" stroke-width="3.82303" stroke-miterlimit="22.926"/>
<path fill-rule="evenodd" clip-rule="evenodd" d="M113.872 222.096C134.231 218.356 153.379 218.514 171.474 222.096C172.843 196.706 117.691 187.461 113.872 222.096Z" fill="#110F0D"/>
<path fill-rule="evenodd" clip-rule="evenodd" d="M117.375 218.461C129.201 216.801 140.948 216.327 152.589 217.249C150.324 198.312 120.904 198.654 117.375 218.461Z" fill="#ED1C24"/>
<path fill-rule="evenodd" clip-rule="evenodd" d="M123.828 162.861C128.305 162.861 131.914 168.339 131.914 175.082C131.914 181.825 128.305 187.277 123.828 187.277C119.35 187.277 115.716 181.825 115.716 175.082C115.716 168.339 119.35 162.861 123.828 162.861Z" fill="black"/>
<path fill-rule="evenodd" clip-rule="evenodd" d="M119.535 166.733C122.564 163.361 126.435 163.414 128.937 167.812C130.412 170.367 129.016 172.264 127.199 172.711C125.988 173.027 125.487 173.659 124.75 174.476C123.828 175.319 122.932 175.45 122.011 174.423C121.352 173.765 121.352 172.659 120.009 172.395C117.902 171.974 117.507 168.945 119.535 166.733Z" fill="white"/>
<path fill-rule="evenodd" clip-rule="evenodd" d="M118.139 175.714C118.56 174.16 119.772 173.95 120.536 174.95C121.299 175.925 121.774 176.979 121.22 178.19C120.325 179.323 121.273 181.64 122.406 180.244C122.932 179.639 123.301 180.007 123.459 180.692C123.749 182.668 121.905 184.406 119.825 182.483C118.007 180.798 117.401 178.374 118.139 175.714Z" fill="white"/>
<path fill-rule="evenodd" clip-rule="evenodd" d="M127.963 174.476C129.517 174.476 130.755 175.714 130.755 177.215C130.755 178.743 129.517 179.981 127.963 179.981C126.435 179.981 125.197 178.743 125.197 177.215C125.197 175.714 126.435 174.476 127.963 174.476Z" fill="white"/>
<path fill-rule="evenodd" clip-rule="evenodd" d="M158.726 162.861C154.248 162.861 150.64 168.339 150.64 175.082C150.64 181.825 154.248 187.277 158.726 187.277C163.203 187.277 166.838 181.825 166.838 175.082C166.838 168.339 163.203 162.861 158.726 162.861Z" fill="black"/>
<path fill-rule="evenodd" clip-rule="evenodd" d="M163.019 166.733C159.99 163.361 156.118 163.414 153.616 167.812C152.141 170.367 153.537 172.264 155.355 172.711C156.566 173.027 157.067 173.659 157.804 174.476C158.726 175.319 159.621 175.45 160.543 174.423C161.202 173.765 161.202 172.659 162.545 172.395C164.652 171.974 165.047 168.945 163.019 166.733Z" fill="white"/>
<path fill-rule="evenodd" clip-rule="evenodd" d="M164.415 175.714C163.994 174.16 162.782 173.95 162.018 174.95C161.254 175.925 160.754 176.979 161.333 178.19C162.229 179.323 161.281 181.64 160.148 180.244C159.621 179.639 159.253 180.007 159.095 180.692C158.805 182.668 160.649 184.406 162.729 182.483C164.547 180.798 165.152 178.374 164.415 175.714Z" fill="white"/>
<path fill-rule="evenodd" clip-rule="evenodd" d="M154.591 174.476C153.037 174.476 151.799 175.714 151.799 177.215C151.799 178.743 153.037 179.981 154.591 179.981C156.118 179.981 157.356 178.743 157.356 177.215C157.356 175.714 156.118 174.476 154.591 174.476Z" fill="white"/>
<path d="M97.9375 159.226C109.316 157.857 119.587 152.273 128.753 142.633" stroke="#110F0D" stroke-width="3.82303" stroke-miterlimit="22.926" stroke-linecap="round"/>
<path d="M186.091 159.226C174.713 157.857 164.441 152.273 155.276 142.633" stroke="#110F0D" stroke-width="3.82303" stroke-miterlimit="22.926" stroke-linecap="round"/>
<path fill-rule="evenodd" clip-rule="evenodd" d="M45.9197 73.5486L66.6215 52.8468C78.0522 64.2775 78.0522 82.8196 66.6215 94.2503C55.1907 105.681 36.6487 105.681 25.2443 94.2503L45.9197 73.5486Z" fill="#341B14"/>
<path fill-rule="evenodd" clip-rule="evenodd" d="M238.109 73.5486L217.407 52.8468C205.976 64.2775 205.976 82.8196 217.407 94.2503C228.838 105.681 247.38 105.681 258.811 94.2503L238.109 73.5486Z" fill="#341B14"/>
<path d="M45.9197 73.5484L66.6215 52.8467C78.0522 64.2774 78.0522 82.8194 66.6215 94.2502C55.1907 105.681 36.6487 105.681 25.2443 94.2502L45.9197 73.5484Z" stroke="black" stroke-width="6.68862" stroke-miterlimit="22.926"/>
<path d="M238.109 73.5484L217.407 52.8467C205.976 64.2774 205.976 82.8194 217.407 94.2502C228.838 105.681 247.38 105.681 258.811 94.2502L238.109 73.5484Z" stroke="black" stroke-width="6.68862" stroke-miterlimit="22.926"/>
</svg>
