<svg width="284" height="284" viewBox="0 0 284 284" fill="none" xmlns="http://www.w3.org/2000/svg">
<path fill-rule="evenodd" clip-rule="evenodd" d="M129.795 62.6973H149.76C194.824 62.6973 231.697 99.5706 231.697 144.609C231.697 189.673 194.824 226.52 149.76 226.52H129.795C84.7308 226.52 47.8838 189.673 47.8838 144.609C47.8838 99.5706 84.7308 62.6973 129.795 62.6973Z" fill="#FBCA8F"/>
<path fill-rule="evenodd" clip-rule="evenodd" d="M129.795 62.5919H149.76C194.824 62.5919 235.595 105.655 231.697 144.503L230.038 160.965H148.285L139.619 142.528L131.481 160.965H49.5166L47.8837 144.503C44.1173 106.893 83.0978 62.5919 129.795 62.5919Z" fill="#341B14"/>
<path d="M49.5167 160.965H131.481L139.619 142.528L148.285 160.965H230.038" stroke="black" stroke-width="6.68862" stroke-miterlimit="22.926"/>
<path d="M129.795 61.117H149.76C194.824 61.117 231.697 97.964 231.697 143.029C231.697 188.067 194.824 224.94 149.76 224.94H129.795C84.7308 224.94 47.8838 188.067 47.8838 143.029C47.8838 97.964 84.7308 61.117 129.795 61.117Z" stroke="black" stroke-width="6.68862" stroke-miterlimit="22.926"/>
<path fill-rule="evenodd" clip-rule="evenodd" d="M155.027 110.185C161.585 106.603 165.299 92.3538 173.727 93.1703C181.708 93.9078 185.553 107.261 188.714 117.849C189.082 119.008 188.029 119.271 187.608 118.165C184.184 109.79 178.837 98.2272 173.411 97.4634C166.721 96.5416 165.694 108.262 155.422 111.396C154.079 111.791 154 110.685 155.027 110.185Z" fill="black"/>
<path fill-rule="evenodd" clip-rule="evenodd" d="M143.596 126.857C143.596 126.172 144.597 126.093 144.755 126.962C145.44 131.887 144.071 134.916 141.305 136.734C140.541 137.155 140.12 136.549 140.41 135.97C142.069 132.862 143.228 129.807 143.596 126.857Z" fill="black"/>
<path fill-rule="evenodd" clip-rule="evenodd" d="M96.3196 133.6C105.064 125.962 118.575 126.357 139.303 138.973C140.041 139.447 139.567 140.421 138.408 139.842C134.352 138.182 130.085 136.681 125.687 135.312C130.954 143.266 134.404 154.354 136.011 168.735C136.828 168.814 137.618 168.945 138.382 169.103C139.435 169.34 139.382 170.447 138.355 170.289C137.67 170.157 136.986 170.104 136.301 170.183C137.486 180.797 128.61 190.701 114.546 189.357C102.851 188.225 96.3722 181.983 95.9508 171.289C93.1853 171.447 90.4198 171.737 87.6543 172.08C86.1531 172.396 86.074 171.052 87.6543 170.605C90.2881 169.814 93.0536 169.288 95.9245 169.051C98.2422 153.696 102.535 140.606 111.332 132.783C105.222 132.388 100.56 133.126 96.978 134.679C95.9508 134.996 95.7138 134.258 96.3196 133.6Z" fill="#231F20"/>
<path d="M96.3196 133.599C105.064 125.961 118.575 126.356 139.303 138.972C140.041 139.446 139.567 140.421 138.408 139.841C134.352 138.182 130.085 136.681 125.687 135.311C130.954 143.265 134.404 154.354 136.011 168.734C136.828 168.813 137.618 168.945 138.382 169.103C139.435 169.34 139.382 170.446 138.355 170.288C137.67 170.157 136.986 170.104 136.301 170.183C137.486 180.797 128.61 190.7 114.546 189.357C102.851 188.225 96.3722 181.982 95.9508 171.289C93.1853 171.447 90.4198 171.737 87.6543 172.079C86.1531 172.395 86.074 171.052 87.6543 170.604C90.2881 169.814 93.0536 169.287 95.9245 169.05C98.2422 153.695 102.535 140.605 111.332 132.783C105.222 132.388 100.56 133.125 96.978 134.679C95.9508 134.995 95.7138 134.258 96.3196 133.599Z" stroke="#110F0D" stroke-width="3.82303" stroke-miterlimit="22.926"/>
<path fill-rule="evenodd" clip-rule="evenodd" d="M129.269 213.035C145.44 204.317 159.873 197.838 164.772 203.395C165.51 203.764 165.931 203.369 165.589 202.553C160.69 197.127 147.547 201.209 128.715 211.929C128.083 212.377 128.373 213.351 129.269 213.035Z" fill="#231F20"/>
<path fill-rule="evenodd" clip-rule="evenodd" d="M142.016 216.564C141.621 217.17 142.253 217.776 142.885 217.143C146.415 212.508 149.944 209.532 151.155 211.507C151.709 212.139 152.604 211.612 152.183 210.875C150.26 208.215 147.047 209.558 142.016 216.564Z" fill="#231F20"/>
<path fill-rule="evenodd" clip-rule="evenodd" d="M112.781 132.862C116.732 133.204 120.551 133.863 124.159 134.969C129.506 142.765 133.088 153.932 134.8 168.629C122.447 166.627 109.936 166.575 97.1887 168.866C99.4275 152.853 104.353 140.5 112.781 132.862Z" fill="#FBCA8F"/>
<path fill-rule="evenodd" clip-rule="evenodd" d="M97.4258 170.947C104.616 170.236 111.622 169.841 118.417 169.788C117.943 178.506 131.007 179.744 135.379 173.186C133.825 181.482 127.846 188.225 115.652 188.146C105.485 188.067 97.2151 181.377 97.4258 170.947Z" fill="white"/>
<path fill-rule="evenodd" clip-rule="evenodd" d="M125.107 169.683C125.581 169.999 125.845 170.368 125.845 170.789C125.845 171.684 124.528 172.422 122.921 172.422C121.288 172.422 119.998 171.684 119.998 170.789C119.998 170.394 120.208 170.025 120.656 169.735L125.107 169.683Z" fill="white"/>
<path fill-rule="evenodd" clip-rule="evenodd" d="M144.808 173.87C142.859 174.45 142.517 173.001 144.202 172.633C143.86 152.194 155.185 121.379 167.854 125.092C170.514 126.225 166.353 126.172 165.879 126.198C172.068 127.568 180.365 143.134 185.421 168.708C187.739 169.051 190.031 169.551 192.243 170.341C193.613 170.815 193.165 172.027 191.901 171.895C189.925 171.605 187.897 171.474 185.843 171.553C185.342 175.214 183.788 178.269 181.234 180.692C183.393 180.508 185.105 180.771 186.027 181.693L185.369 182.483C180.707 180.613 173.359 183.115 164.009 188.936L163.64 187.777L165.694 186.407C154.263 186.065 147.416 181.798 144.808 173.87Z" fill="#231F20"/>
<path d="M144.808 173.87C142.859 174.45 142.517 173.001 144.202 172.632C143.86 152.194 155.185 121.378 167.854 125.092C170.514 126.225 166.353 126.172 165.879 126.198C172.068 127.568 180.365 143.134 185.421 168.708C187.739 169.05 190.031 169.551 192.243 170.341C193.613 170.815 193.165 172.026 191.901 171.895C189.925 171.605 187.897 171.473 185.843 171.552C185.342 175.213 183.788 178.269 181.234 180.692C183.393 180.507 185.105 180.771 186.027 181.693L185.369 182.483C180.707 180.613 173.359 183.115 164.009 188.936L163.64 187.777L165.694 186.407C154.263 186.065 147.416 181.798 144.808 173.87Z" stroke="#110F0D" stroke-width="3.82303" stroke-miterlimit="22.926"/>
<path fill-rule="evenodd" clip-rule="evenodd" d="M145.44 172.264C157.134 167.971 169.619 165.995 183.578 168.339C183.156 157.751 174.201 135.627 168.328 129.359C166.142 127.015 163.482 125.856 160.901 128.384C151.314 137.866 145.993 154.011 145.44 172.264Z" fill="#FBCA8F"/>
<path fill-rule="evenodd" clip-rule="evenodd" d="M174.675 170.446C175.15 170.736 175.413 171.131 175.413 171.526C175.413 172.448 174.122 173.186 172.489 173.186C170.883 173.186 169.566 172.448 169.566 171.526C169.566 171.158 169.803 170.789 170.224 170.499L174.675 170.446Z" fill="white"/>
<path fill-rule="evenodd" clip-rule="evenodd" d="M145.914 173.581C153.368 171.421 160.874 170.868 167.327 170.605C167.67 177.268 177.678 181.114 184.105 173.95C183.42 176.557 181.681 178.875 178.837 180.876C175.834 181.667 172.331 183.089 168.46 185.012C158.214 185.67 148.917 182.325 145.914 173.581Z" fill="white"/>
<path d="M129.318 214.494C145.49 205.776 159.923 199.297 164.822 204.854C165.56 205.223 165.981 204.828 165.639 204.012C160.74 198.586 147.597 202.668 128.765 213.388C128.133 213.836 128.423 214.81 129.318 214.494Z" stroke="#231F20" stroke-width="3.82303" stroke-miterlimit="22.926"/>
<path d="M142.066 218.024C141.671 218.63 142.303 219.235 142.935 218.603C146.464 213.968 149.994 210.992 151.205 212.967C151.758 213.599 152.654 213.072 152.232 212.335C150.31 209.675 147.097 211.018 142.066 218.024Z" stroke="#231F20" stroke-width="3.82303" stroke-miterlimit="22.926"/>
</svg>
