<svg width="284" height="284" viewBox="0 0 284 284" fill="none" xmlns="http://www.w3.org/2000/svg">
<path fill-rule="evenodd" clip-rule="evenodd" d="M132.243 69.8613H151.812C195.955 69.8613 232.091 105.997 232.091 150.14C232.091 194.309 195.955 230.418 151.812 230.418H132.243C88.0739 230.418 51.9644 194.309 51.9644 150.14C51.9644 105.997 88.0739 69.8613 132.243 69.8613Z" fill="#FBCA8F"/>
<path fill-rule="evenodd" clip-rule="evenodd" d="M132.243 69.756H151.812C195.955 69.756 235.91 111.95 232.091 150.035L230.484 166.18H150.364L141.856 148.112L133.902 166.18H53.571L51.9643 150.035C48.277 113.188 86.4673 69.756 132.243 69.756Z" fill="#341B14"/>
<path d="M53.571 166.18H133.902L141.856 148.112L150.074 166.18H230.484" stroke="black" stroke-width="6.68862" stroke-miterlimit="22.926"/>
<path fill-rule="evenodd" clip-rule="evenodd" d="M162.453 152.404C155.684 148.059 149.784 148.164 145.939 153.59C142.462 158.489 141.066 164.388 140.803 170.657C140.592 176.477 141.251 182.614 144.753 188.619C148.256 194.677 159.951 194.624 167.747 191.359C181.179 185.722 171.065 157.909 162.453 152.404Z" fill="white"/>
<path d="M162.453 152.405C155.684 148.06 149.784 148.165 145.939 153.591C142.462 158.49 141.066 164.389 140.803 170.658C140.592 176.479 141.251 182.615 144.753 188.62C148.256 194.678 159.951 194.625 167.747 191.36C181.179 185.723 171.065 157.91 162.453 152.405Z" stroke="#110F0D" stroke-width="3.82303" stroke-miterlimit="22.926"/>
<path fill-rule="evenodd" clip-rule="evenodd" d="M137.221 152.405C140.961 157.673 142.489 163.994 142.752 170.763C142.989 177.005 142.278 183.642 138.512 190.095C134.745 196.6 122.156 196.548 113.754 193.018C101.217 187.777 107.749 164.573 115.729 154.644C120.97 148.165 131.532 144.346 137.221 152.405Z" fill="white"/>
<path d="M137.221 152.405C140.961 157.672 142.489 163.994 142.752 170.763C142.989 177.005 142.278 183.642 138.512 190.095C134.745 196.6 122.156 196.548 113.754 193.018C101.217 187.777 107.749 164.573 115.729 154.644C120.97 148.164 131.532 144.345 137.221 152.405Z" stroke="#110F0D" stroke-width="3.82303" stroke-miterlimit="22.926"/>
<path fill-rule="evenodd" clip-rule="evenodd" d="M127.555 170.315C129.188 170.315 130.505 171.605 130.505 173.186C130.505 174.792 129.188 176.083 127.555 176.083C125.922 176.083 124.605 174.792 124.605 173.186C124.605 171.605 125.922 170.315 127.555 170.315Z" fill="#110F0D"/>
<path fill-rule="evenodd" clip-rule="evenodd" d="M154.367 170.183C156 170.183 157.317 171.474 157.317 173.08C157.317 174.687 156 175.977 154.367 175.977C152.734 175.977 151.417 174.687 151.417 173.08C151.417 171.474 152.734 170.183 154.367 170.183Z" fill="#110F0D"/>
<path d="M167.536 197.891C173.093 197.285 177.386 194.73 179.23 188.33" stroke="#110F0D" stroke-width="3.82303" stroke-miterlimit="22.926" stroke-linecap="round"/>
<path fill-rule="evenodd" clip-rule="evenodd" d="M141.198 214.353C145.702 214.8 148.625 212.456 149.099 207.215C144.069 206.214 140.118 206.714 138.406 210.086C137.3 212.298 138.301 214.063 141.198 214.353Z" fill="#110F0D"/>
<path d="M132.243 69.8613H151.812C195.955 69.8613 232.091 105.997 232.091 150.14C232.091 194.309 195.955 230.418 151.812 230.418H132.243C88.0739 230.418 51.9644 194.309 51.9644 150.14C51.9644 105.997 88.0739 69.8613 132.243 69.8613Z" stroke="black" stroke-width="6.68862" stroke-miterlimit="22.926"/>
<path fill-rule="evenodd" clip-rule="evenodd" d="M45.9329 74.3387L66.6347 53.637C78.0654 65.0677 78.0654 83.5834 66.6347 95.0405C55.2039 106.445 36.6882 106.445 25.2312 95.0405L45.9329 74.3387Z" fill="#341B14"/>
<path fill-rule="evenodd" clip-rule="evenodd" d="M238.122 74.3388L217.42 53.6371C205.99 65.0678 205.99 83.5835 217.42 95.0406C228.851 106.445 247.393 106.445 258.824 95.0406L238.122 74.3388Z" fill="#341B14"/>
<path d="M45.9329 74.3389L66.6347 53.6372C78.0654 65.0679 78.0654 83.5836 66.6347 95.0407C55.2039 106.445 36.6883 106.445 25.2312 95.0407L45.9329 74.3389Z" stroke="black" stroke-width="6.68862" stroke-miterlimit="22.926"/>
<path d="M238.122 74.3389L217.42 53.6372C205.99 65.0679 205.99 83.5836 217.42 95.0407C228.851 106.445 247.393 106.445 258.824 95.0407L238.122 74.3389Z" stroke="black" stroke-width="6.68862" stroke-miterlimit="22.926"/>
</svg>
