<svg width="284" height="284" viewBox="0 0 284 284" fill="none" xmlns="http://www.w3.org/2000/svg">
<path fill-rule="evenodd" clip-rule="evenodd" d="M132.029 60.1688H152.019C197.058 60.1688 233.931 97.0422 233.931 142.08C233.931 187.145 197.058 223.992 152.019 223.992H132.029C86.9642 223.992 50.1172 187.145 50.1172 142.08C50.1172 97.0422 86.9642 60.1688 132.029 60.1688Z" fill="#FBCA8F"/>
<path fill-rule="evenodd" clip-rule="evenodd" d="M132.029 60.0634H152.019C197.058 60.0634 237.829 103.126 233.931 141.975L232.272 158.436H150.518L141.853 140L133.741 158.436H51.7766L50.1173 141.975C46.351 104.364 85.3314 60.0634 132.029 60.0634Z" fill="#341B14"/>
<path fill-rule="evenodd" clip-rule="evenodd" d="M131.66 195.441C138.745 198.97 145.988 198.733 153.152 195.362C154.311 194.835 155.101 194.941 155.075 195.757C154.838 204.264 152.573 211.929 147.094 217.776C143.934 221.147 140.589 221.252 137.507 217.776C132.74 212.403 129.948 205.476 129.896 196.126C129.869 194.809 130.37 194.783 131.66 195.441Z" fill="#110F0D"/>
<path fill-rule="evenodd" clip-rule="evenodd" d="M134.004 208.901C139.272 204.818 144.776 205.029 150.465 208.901C149.438 211.745 148.069 214.511 145.804 216.776C143.565 219.014 141.063 219.225 138.666 216.776C136.401 214.458 134.926 211.798 134.004 208.901Z" fill="#ED1C24"/>
<path d="M51.7765 158.436H133.741L141.853 140L150.518 158.436H232.272" stroke="black" stroke-width="6.68862" stroke-miterlimit="22.926"/>
<path fill-rule="evenodd" clip-rule="evenodd" d="M150.913 175.846C160.684 164.679 171.457 163.81 183.256 175.846C184.283 176.9 186.338 176.188 185.337 174.898C173.011 158.674 159.499 158.252 149.148 174.924C148.227 176.452 149.701 177.242 150.913 175.846Z" fill="black"/>
<path fill-rule="evenodd" clip-rule="evenodd" d="M116.252 142.607C121.151 139.841 129.711 139.341 132.345 145.425C135.295 152.246 135.822 173.975 129.975 182.114C125.207 188.777 111.749 187.303 105.533 183.721C99.2643 180.086 95.3136 172.659 99.8701 161.175C103.347 152.378 109.536 146.426 116.252 142.607Z" fill="white"/>
<path d="M116.252 142.607C121.151 139.841 129.711 139.341 132.345 145.425C135.295 152.247 135.822 173.976 129.975 182.114C125.207 188.778 111.749 187.303 105.533 183.721C99.2643 180.086 95.3136 172.659 99.8701 161.175C103.347 152.378 109.536 146.426 116.252 142.607Z" stroke="#110F0D" stroke-width="3.82303" stroke-miterlimit="22.926"/>
<path fill-rule="evenodd" clip-rule="evenodd" d="M127.025 158.068C130.001 158.068 132.424 161.702 132.424 166.206C132.424 170.71 130.001 174.371 127.025 174.371C124.048 174.371 121.625 170.71 121.625 166.206C121.625 161.702 124.048 158.068 127.025 158.068Z" fill="black"/>
<path fill-rule="evenodd" clip-rule="evenodd" d="M127.024 159.227C128.763 159.227 130.159 160.622 130.159 162.334C130.159 164.046 128.763 165.442 127.024 165.442C125.286 165.442 123.864 164.046 123.864 162.334C123.864 160.622 125.286 159.227 127.024 159.227Z" fill="white"/>
<path d="M132.029 60.169H152.019C197.058 60.169 233.931 97.0424 233.931 142.081C233.931 187.145 197.058 223.992 152.019 223.992H132.029C86.9642 223.992 50.1172 187.145 50.1172 142.081C50.1172 97.0424 86.9642 60.169 132.029 60.169Z" stroke="black" stroke-width="6.68862" stroke-miterlimit="22.926"/>
</svg>
