<svg width="284" height="284" viewBox="0 0 284 284" fill="none" xmlns="http://www.w3.org/2000/svg">
<path fill-rule="evenodd" clip-rule="evenodd" d="M132.042 60.1688H152.006C197.071 60.1688 233.918 97.0158 233.918 142.08C233.918 187.145 197.071 223.992 152.006 223.992H132.042C86.9775 223.992 50.1304 187.145 50.1304 142.08C50.1304 97.0158 86.9775 60.1688 132.042 60.1688Z" fill="#FBCA8F"/>
<path fill-rule="evenodd" clip-rule="evenodd" d="M132.042 60.0634H152.006C197.071 60.0634 237.816 103.1 233.918 141.975L232.285 158.436H150.531L141.866 140L133.728 158.436H51.7634L50.1304 141.975C46.3641 104.364 85.3445 60.0634 132.042 60.0634Z" fill="#341B14"/>
<path d="M51.7634 158.436H133.728L141.866 140L150.531 158.436H232.285" stroke="black" stroke-width="6.68862" stroke-miterlimit="22.926"/>
<path d="M132.042 60.169H152.006C197.071 60.169 233.918 97.016 233.918 142.081C233.918 187.145 197.071 223.992 152.006 223.992H132.042C86.9775 223.992 50.1304 187.145 50.1304 142.081C50.1304 97.016 86.9775 60.169 132.042 60.169Z" stroke="black" stroke-width="6.68862" stroke-miterlimit="22.926"/>
<path fill-rule="evenodd" clip-rule="evenodd" d="M97.5127 211.745C101.516 208.927 105.809 206.451 110.892 204.818C114.106 203.791 115.37 204.396 116.186 205.95C118.873 211.192 124.378 210.085 131.726 203.501C134.412 201.842 136.361 201.71 137.705 203.396C141.55 208.189 146.159 208.689 152.507 202.237C155.799 198.892 159.618 198.944 160.803 201.42C164.254 207.346 175.658 206.872 186.536 196.6C176.79 201.209 168.705 203.317 165.175 198.286C162.015 193.782 156.405 193.15 152.638 196.495C149.399 199.708 144.21 203.633 142.182 200.103C139.785 195.995 136.282 195.415 130.593 198.26C127.459 199.787 126.801 200.551 124.299 202.711C122.771 203.975 121.349 203.448 120.453 201.815C118.504 198.312 114.158 198.339 108.812 201.42C103.913 204.265 100.384 207.847 97.5127 211.745Z" fill="#231F20"/>
<path fill-rule="evenodd" clip-rule="evenodd" d="M164.517 142.001C157.564 137.55 151.532 137.629 147.581 143.213C144.026 148.217 142.577 154.248 142.34 160.675C142.103 166.627 142.788 172.949 146.37 179.112C149.952 185.301 161.936 185.222 169.943 181.903C183.691 176.135 173.34 147.638 164.517 142.001Z" fill="white"/>
<path d="M164.517 142.002C157.564 137.551 151.532 137.63 147.581 143.213C144.026 148.218 142.577 154.249 142.34 160.676C142.103 166.628 142.788 172.949 146.37 179.112C149.952 185.302 161.936 185.223 169.943 181.904C183.691 176.136 173.34 147.638 164.517 142.002Z" stroke="#110F0D" stroke-width="3.82303" stroke-miterlimit="22.926"/>
<path fill-rule="evenodd" clip-rule="evenodd" d="M138.653 141.975C142.498 147.375 144.052 153.88 144.315 160.781C144.579 167.207 143.815 173.976 139.97 180.613C136.124 187.277 123.219 187.198 114.632 183.616C101.779 178.217 108.443 154.486 116.66 144.293C121.981 137.656 132.806 133.731 138.653 141.975Z" fill="white"/>
<path d="M138.653 141.975C142.498 147.374 144.052 153.88 144.315 160.78C144.579 167.207 143.815 173.976 139.97 180.613C136.124 187.276 123.219 187.197 114.632 183.615C101.779 178.216 108.443 154.485 116.66 144.292C121.981 137.655 132.806 133.731 138.653 141.975Z" stroke="#110F0D" stroke-width="3.82303" stroke-miterlimit="22.926"/>
<path fill-rule="evenodd" clip-rule="evenodd" d="M128.75 157.014C132.305 157.014 135.15 159.806 135.15 163.282C135.15 166.759 132.305 169.577 128.75 169.577C125.22 169.577 122.35 166.759 122.35 163.282C122.35 159.806 125.22 157.014 128.75 157.014Z" fill="#110F0D"/>
<path fill-rule="evenodd" clip-rule="evenodd" d="M156.22 160.201C157.88 160.201 159.249 161.544 159.249 163.177C159.249 164.81 157.88 166.153 156.22 166.153C154.561 166.153 153.191 164.81 153.191 163.177C153.191 161.544 154.561 160.201 156.22 160.201Z" fill="#110F0D"/>
<path d="M162.805 132.493C168.494 133.125 172.892 135.733 174.762 142.317" stroke="#110F0D" stroke-width="3.82303" stroke-miterlimit="22.926" stroke-linecap="round"/>
</svg>
