<svg width="284" height="284" viewBox="0 0 284 284" fill="none" xmlns="http://www.w3.org/2000/svg">
<path fill-rule="evenodd" clip-rule="evenodd" d="M132.23 70.6511H151.825C195.968 70.6511 232.104 106.761 232.104 150.93C232.104 195.072 195.968 231.208 151.825 231.208H132.23C88.0871 231.208 51.9512 195.072 51.9512 150.93C51.9512 106.761 88.0871 70.6511 132.23 70.6511Z" fill="#FBCA8F"/>
<path fill-rule="evenodd" clip-rule="evenodd" d="M132.23 70.546H151.825C195.968 70.546 235.923 112.74 232.104 150.825L230.471 166.944H150.35L141.87 148.876L133.915 166.944H53.5842L51.9512 150.825C48.2639 113.951 86.4805 70.546 132.23 70.546Z" fill="#341B14"/>
<path d="M53.5841 166.943H133.915L141.869 148.875L150.35 166.943H230.471" stroke="black" stroke-width="6.68862" stroke-miterlimit="22.926"/>
<path d="M132.23 70.6511H151.825C195.968 70.6511 232.104 106.761 232.104 150.93C232.104 195.072 195.968 231.208 151.825 231.208H132.23C88.0871 231.208 51.9512 195.072 51.9512 150.93C51.9512 106.761 88.0871 70.6511 132.23 70.6511Z" stroke="black" stroke-width="6.68862" stroke-miterlimit="22.926"/>
<path fill-rule="evenodd" clip-rule="evenodd" d="M45.9461 73.5486L66.6478 52.8468C78.0786 64.2775 78.0786 82.8196 66.6478 94.2503C55.2171 105.681 36.6751 105.681 25.2443 94.2503L45.9461 73.5486Z" fill="#341B14"/>
<path fill-rule="evenodd" clip-rule="evenodd" d="M238.109 73.5486L217.434 52.8468C206.003 64.2775 206.003 82.8196 217.434 94.2503C228.864 105.681 247.38 105.681 258.811 94.2503L238.109 73.5486Z" fill="#341B14"/>
<path d="M45.9461 73.5484L66.6478 52.8467C78.0786 64.2774 78.0786 82.8194 66.6478 94.2502C55.2171 105.681 36.6751 105.681 25.2443 94.2502L45.9461 73.5484Z" stroke="black" stroke-width="6.68862" stroke-miterlimit="22.926"/>
<path d="M238.109 73.5484L217.434 52.8467C206.003 64.2774 206.003 82.8194 217.434 94.2502C228.864 105.681 247.38 105.681 258.811 94.2502L238.109 73.5484Z" stroke="black" stroke-width="6.68862" stroke-miterlimit="22.926"/>
<path fill-rule="evenodd" clip-rule="evenodd" d="M104.864 158.7C110.316 154.459 117.849 152.062 126.62 150.798L123.169 141.764C110.817 142.66 105.339 150.324 104.864 158.7Z" fill="#231F20"/>
<path fill-rule="evenodd" clip-rule="evenodd" d="M154.591 152.536C167.207 150.482 176.056 152.431 179.085 160.595C171.236 159.2 163.098 159.463 154.591 161.702V152.536Z" fill="#231F20"/>
<path fill-rule="evenodd" clip-rule="evenodd" d="M98.4116 173.291H185.591C186.987 198.391 149.481 199.076 142.344 181.824C133.757 200.024 98.1482 197.522 98.4116 173.291Z" fill="#231F20"/>
<path fill-rule="evenodd" clip-rule="evenodd" d="M142.581 174.529H159.911C160.254 181.508 172.237 181.376 172.395 174.529H184.142C183.668 185.591 176.662 191.596 163.598 191.675C151.061 191.754 143.898 185.749 142.581 174.529Z" fill="white"/>
<path fill-rule="evenodd" clip-rule="evenodd" d="M163.493 175.003C164.441 175.003 165.205 175.793 165.205 176.741C165.205 177.716 164.441 178.479 163.493 178.479C162.519 178.479 161.755 177.716 161.755 176.741C161.755 175.793 162.519 175.003 163.493 175.003Z" fill="white"/>
<path fill-rule="evenodd" clip-rule="evenodd" d="M100.018 174.529H117.349C117.717 181.508 129.675 181.376 129.859 174.529H141.606C141.132 185.591 134.1 191.596 121.062 191.675C108.525 191.754 101.335 185.749 100.018 174.529Z" fill="white"/>
<path fill-rule="evenodd" clip-rule="evenodd" d="M120.931 175.003C121.905 175.003 122.669 175.793 122.669 176.741C122.669 177.716 121.905 178.479 120.931 178.479C119.982 178.479 119.219 177.716 119.219 176.741C119.219 175.793 119.982 175.003 120.931 175.003Z" fill="white"/>
<path fill-rule="evenodd" clip-rule="evenodd" d="M123.249 223.149C121.642 222.464 120.404 221.595 119.535 220.541C129.886 210.849 144.029 206.424 164.652 211.086C146.61 204.291 131.15 206.846 118.113 218.197C117.085 216.986 116.48 215.563 116.164 213.983C113.688 218.724 116.374 223.913 123.249 223.149Z" fill="#231F20"/>
</svg>
