<svg width="284" height="284" viewBox="0 0 284 284" fill="none" xmlns="http://www.w3.org/2000/svg">
<path fill-rule="evenodd" clip-rule="evenodd" d="M132.029 60.1688H152.02C197.058 60.1688 233.931 97.0158 233.931 142.08C233.931 187.145 197.058 223.992 152.02 223.992H132.029C86.9645 223.992 50.1175 187.145 50.1175 142.08C50.1175 97.0158 86.9645 60.1688 132.029 60.1688Z" fill="#ED1C24"/>
<path fill-rule="evenodd" clip-rule="evenodd" d="M132.029 60.0634H152.02C197.058 60.0634 237.829 103.1 233.931 141.975L232.272 158.436H150.518L141.853 140L133.741 158.436H51.7767L50.1174 141.975C46.351 104.364 85.3314 60.0634 132.029 60.0634Z" fill="#341B14"/>
<path d="M132.029 60.169H152.02C197.058 60.169 233.931 97.016 233.931 142.081C233.931 187.145 197.058 223.992 152.02 223.992H132.029C86.9645 223.992 50.1175 187.145 50.1175 142.081C50.1175 97.016 86.9645 60.169 132.029 60.169Z" stroke="black" stroke-width="6.68862" stroke-miterlimit="22.926"/>
<path d="M51.7768 158.752H133.741L141.853 140.316L150.518 158.752H232.272" stroke="black" stroke-width="6.68862" stroke-miterlimit="22.926"/>
<path fill-rule="evenodd" clip-rule="evenodd" d="M73.8218 154.381C87.1226 137.472 113.039 143.371 135.479 170.157C136.638 172.027 137.771 172.264 138.06 170.394C139.114 163.757 139.404 155.961 138.377 146.058C138.166 144.873 139.272 144.477 139.562 145.663C140.958 157.462 141.511 169.077 138.482 181.193C135.242 194.072 111.933 200.709 91.1786 191.491C87.3596 190.859 83.9357 191.307 80.301 194.283C78.9578 195.389 77.8779 194.415 78.8524 193.203C79.7216 192.228 80.8804 191.412 82.2764 190.78C78.2466 191.017 75.1651 192.386 73.1107 195.02C72.2152 196.285 71.2407 195.626 71.7675 194.652C74.0325 190.648 78.194 188.093 87.5703 189.2C77.6408 180.008 75.1914 167.444 81.5126 150.93C79.1948 151.273 76.5873 152.563 73.8218 154.381Z" fill="#110F0D"/>
<path fill-rule="evenodd" clip-rule="evenodd" d="M136.348 175.451C138.271 180.06 136.217 184.274 132.819 187.355C124.312 195.125 101.319 197.259 89.6246 188.435C79.5898 180.876 77.2984 163.519 83.1454 152.589C92.8115 134.548 130.633 161.781 136.348 175.451Z" fill="white"/>
<path fill-rule="evenodd" clip-rule="evenodd" d="M209.963 154.381C196.636 137.472 170.72 143.371 148.28 170.157C147.121 172.027 145.988 172.264 145.698 170.394C144.645 163.757 144.355 155.961 145.382 146.058C145.593 144.873 144.487 144.477 144.197 145.663C142.801 157.462 142.248 169.077 145.303 181.193C148.543 194.072 171.826 200.709 192.607 191.491C196.399 190.859 199.823 191.307 203.458 194.283C204.801 195.389 205.881 194.415 204.907 193.203C204.037 192.228 202.905 191.412 201.483 190.78C205.512 191.017 208.594 192.386 210.675 195.02C211.544 196.285 212.518 195.626 211.991 194.652C209.726 190.648 205.565 188.093 196.215 189.2C206.118 180.008 208.568 167.444 202.246 150.93C204.564 151.273 207.172 152.563 209.963 154.381Z" fill="#110F0D"/>
<path fill-rule="evenodd" clip-rule="evenodd" d="M147.41 175.451C145.488 180.06 147.542 184.274 150.94 187.355C159.447 195.125 182.44 197.259 194.134 188.435C204.169 180.876 206.46 163.519 200.613 152.589C190.947 134.548 153.126 161.781 147.41 175.451Z" fill="white"/>
<path fill-rule="evenodd" clip-rule="evenodd" d="M129.474 167.918C132.477 167.918 134.9 171.553 134.9 176.056C134.9 180.56 132.477 184.195 129.474 184.195C126.498 184.195 124.075 180.56 124.075 176.056C124.075 171.553 126.498 167.918 129.474 167.918Z" fill="black"/>
<path fill-rule="evenodd" clip-rule="evenodd" d="M129.474 169.051C131.213 169.051 132.635 170.446 132.635 172.158C132.635 173.897 131.213 175.293 129.474 175.293C127.736 175.293 126.34 173.897 126.34 172.158C126.34 170.446 127.736 169.051 129.474 169.051Z" fill="white"/>
<path fill-rule="evenodd" clip-rule="evenodd" d="M154.337 167.918C157.34 167.918 159.737 171.553 159.737 176.056C159.737 180.56 157.34 184.195 154.337 184.195C151.361 184.195 148.938 180.56 148.938 176.056C148.938 171.553 151.361 167.918 154.337 167.918Z" fill="black"/>
<path fill-rule="evenodd" clip-rule="evenodd" d="M154.337 169.051C156.076 169.051 157.498 170.446 157.498 172.158C157.498 173.897 156.076 175.293 154.337 175.293C152.599 175.293 151.203 173.897 151.203 172.158C151.203 170.446 152.599 169.051 154.337 169.051Z" fill="white"/>
<path fill-rule="evenodd" clip-rule="evenodd" d="M123.706 202.368C126.024 202.921 129.316 203.501 133.741 203.448C141.168 203.342 147.49 195.125 156.497 194.572C159.631 194.388 163.082 194.44 167.032 197.021C169.482 198.628 170.404 200.946 170.799 203.422C172.168 211.981 167.744 215.59 158.631 217.433C143.038 220.594 125.023 219.014 117.464 214.405C113.224 211.797 112.855 205.713 116.753 202.842C119.545 200.788 120.73 201.657 123.706 202.368Z" fill="#110F0D"/>
<path fill-rule="evenodd" clip-rule="evenodd" d="M122.495 203.211C126.445 204.475 130.712 204.896 135.058 204.554C140.8 203.922 147.042 198.812 153.495 196.811C158.13 195.388 163.082 196.126 167.138 198.628C166.532 203.342 162.792 206.556 156.55 208.268C159.236 208.557 162.186 208.241 165.478 206.951L167.77 211.639C156.919 219.962 123.917 218.935 116.41 212.245L117.622 209.295C119.281 209.584 120.809 209.426 122.205 208.952C120.704 209.005 119.308 208.715 118.122 207.714C116.2 205.107 118.07 202.131 122.495 203.211Z" fill="white"/>
<path fill-rule="evenodd" clip-rule="evenodd" d="M130.633 208.847C136.269 209.453 141.853 209.48 147.331 208.847C147.489 210.665 130.791 209.69 130.633 208.847Z" fill="#110F0D"/>
</svg>
