<svg width="284" height="284" viewBox="0 0 284 284" fill="none" xmlns="http://www.w3.org/2000/svg">
<path fill-rule="evenodd" clip-rule="evenodd" d="M132.23 70.6512H151.825C195.968 70.6512 232.104 106.761 232.104 150.93C232.104 195.072 195.968 231.208 151.825 231.208H132.23C88.0871 231.208 51.9512 195.072 51.9512 150.93C51.9512 106.761 88.0871 70.6512 132.23 70.6512Z" fill="#FBCA8F"/>
<path fill-rule="evenodd" clip-rule="evenodd" d="M132.23 70.546H151.825C195.968 70.546 235.923 112.74 232.104 150.798L230.471 166.944H150.377L141.87 148.876L133.915 166.944H53.5842L51.9512 150.798C48.2639 113.951 86.4805 70.546 132.23 70.546Z" fill="#341B14"/>
<path fill-rule="evenodd" clip-rule="evenodd" d="M131.887 203.211C138.814 206.662 145.899 206.451 152.958 203.132C154.064 202.606 154.854 202.711 154.828 203.527C154.591 211.85 152.352 219.357 146.979 225.098C143.898 228.417 140.632 228.522 137.603 225.098C132.941 219.831 130.202 213.036 130.149 203.896C130.149 202.606 130.623 202.579 131.887 203.211Z" fill="#110F0D"/>
<path fill-rule="evenodd" clip-rule="evenodd" d="M134.179 216.407C139.341 212.404 144.74 212.614 150.298 216.407C149.297 219.172 147.954 221.885 145.741 224.124C143.555 226.336 141.079 226.521 138.735 224.124C136.523 221.833 135.074 219.251 134.179 216.407Z" fill="#ED1C24"/>
<path d="M53.5841 166.943H133.915L141.869 148.875L150.35 166.943H230.471" stroke="black" stroke-width="6.68862" stroke-miterlimit="22.926"/>
<path fill-rule="evenodd" clip-rule="evenodd" d="M171.579 155.065C165.389 144.161 156.171 147.19 150.535 156.172C141.316 170.842 162.071 177.374 164.731 188.515C167.549 182.668 174.608 182.799 180.481 179.665C186.908 176.268 192.412 171 189.989 162.019C187.513 152.721 179.849 147.875 171.579 155.065Z" fill="#ED1C24"/>
<path fill-rule="evenodd" clip-rule="evenodd" d="M108.288 151.483C116.216 137.524 128.042 141.369 135.232 152.879C147.032 171.685 120.457 180.034 117.085 194.309C113.477 186.803 104.443 186.987 96.9103 182.984C88.6665 178.611 81.6078 171.869 84.6894 160.359C87.8763 148.454 97.7004 142.265 108.288 151.483Z" fill="#ED1C24"/>
<path d="M171.579 155.065C165.389 144.161 156.171 147.19 150.535 156.171C141.316 170.842 162.071 177.373 164.731 188.514C167.549 182.667 174.608 182.799 180.481 179.665C186.908 176.267 192.412 171 189.989 162.018C187.513 152.721 179.849 147.875 171.579 155.065Z" stroke="black" stroke-width="6.68862" stroke-miterlimit="22.926"/>
<path d="M108.288 151.483C116.216 137.524 128.042 141.369 135.232 152.879C147.032 171.684 120.457 180.033 117.085 194.309C113.477 186.802 104.443 186.987 96.9103 182.983C88.6665 178.611 81.6078 171.869 84.6894 160.359C87.8763 148.454 97.7004 142.265 108.288 151.483Z" stroke="black" stroke-width="6.68862" stroke-miterlimit="22.926"/>
<path d="M132.23 70.6511H151.825C195.968 70.6511 232.104 106.761 232.104 150.93C232.104 195.072 195.968 231.208 151.825 231.208H132.23C88.0871 231.208 51.9512 195.072 51.9512 150.93C51.9512 106.761 88.0871 70.6511 132.23 70.6511Z" stroke="black" stroke-width="6.68862" stroke-miterlimit="22.926"/>
<path fill-rule="evenodd" clip-rule="evenodd" d="M45.9461 73.5486L66.6478 52.8468C78.0786 64.2775 78.0786 82.7932 66.6478 94.2503C55.2171 105.655 36.6751 105.655 25.2443 94.2503L45.9461 73.5486Z" fill="#341B14"/>
<path fill-rule="evenodd" clip-rule="evenodd" d="M238.109 73.5487L217.434 52.8469C206.003 64.2777 206.003 82.7934 217.434 94.2504C228.864 105.655 247.38 105.655 258.811 94.2504L238.109 73.5487Z" fill="#341B14"/>
<path d="M45.9461 73.5485L66.6478 52.8468C78.0786 64.2775 78.0786 82.7932 66.6478 94.2503C55.2171 105.655 36.675 105.655 25.2443 94.2503L45.9461 73.5485Z" stroke="black" stroke-width="6.68862" stroke-miterlimit="22.926"/>
<path d="M238.109 73.5485L217.434 52.8468C206.003 64.2775 206.003 82.7932 217.434 94.2503C228.864 105.655 247.38 105.655 258.811 94.2503L238.109 73.5485Z" stroke="black" stroke-width="6.68862" stroke-miterlimit="22.926"/>
</svg>
