<svg width="284" height="284" viewBox="0 0 284 284" fill="none" xmlns="http://www.w3.org/2000/svg">
<path fill-rule="evenodd" clip-rule="evenodd" d="M238.109 74.0491L217.407 53.3737C205.976 64.8044 205.976 83.3201 217.407 94.7508C228.838 106.182 247.38 106.182 258.811 94.7508L238.109 74.0491Z" fill="#341B14"/>
<path fill-rule="evenodd" clip-rule="evenodd" d="M132.045 70.1245H151.641C195.784 70.1245 231.92 106.26 231.92 150.403C231.92 194.572 195.784 230.682 151.641 230.682H132.045C87.9027 230.682 51.7932 194.572 51.7932 150.403C51.7932 106.26 87.9027 70.1245 132.045 70.1245Z" fill="#FBCA8F"/>
<path fill-rule="evenodd" clip-rule="evenodd" d="M132.045 70.0194H151.641C195.784 70.0194 235.738 112.213 231.919 150.298L230.286 166.417H150.192L141.685 148.375L133.731 166.417H53.3997L51.7931 150.298C48.0794 113.451 86.296 70.0194 132.045 70.0194Z" fill="#341B14"/>
<path d="M53.3998 166.733H133.731L141.685 148.665L150.192 166.733H230.287" stroke="black" stroke-width="6.68862" stroke-miterlimit="22.926"/>
<path fill-rule="evenodd" clip-rule="evenodd" d="M148.375 223.833C153.748 210.322 163.44 206.029 178.242 213.298C179.533 213.956 181.219 212.639 179.849 211.744C163.203 200.761 150.561 204.791 146.426 223.57C146.057 225.282 147.69 225.545 148.375 223.833Z" fill="black"/>
<path fill-rule="evenodd" clip-rule="evenodd" d="M208.426 162.466C195.362 145.899 169.972 151.667 147.98 177.9C146.847 179.744 145.741 179.981 145.452 178.164C144.424 171.658 144.135 164.02 145.162 154.301C145.346 153.142 144.266 152.747 143.977 153.906C142.607 165.469 142.08 176.847 145.057 188.725C148.217 201.367 171.052 207.847 191.412 198.839C195.152 198.233 198.497 198.628 202.052 201.552C203.395 202.632 204.449 201.71 203.474 200.525C202.605 199.55 201.499 198.76 200.103 198.128C204.054 198.365 207.109 199.708 209.111 202.289C209.98 203.527 210.928 202.895 210.428 201.947C208.215 197.996 204.133 195.52 194.941 196.6C204.66 187.566 207.083 175.266 200.867 159.068C203.132 159.411 205.713 160.675 208.426 162.466Z" fill="#110F0D"/>
<path fill-rule="evenodd" clip-rule="evenodd" d="M147.137 183.089C145.241 187.646 147.269 191.755 150.587 194.783C158.937 202.395 181.456 204.476 192.913 195.837C202.763 188.41 205.002 171.422 199.26 160.728C189.805 143.029 152.747 169.736 147.137 183.089Z" fill="white"/>
<path d="M132.045 70.1245H151.641C195.784 70.1245 231.92 106.26 231.92 150.403C231.92 194.572 195.784 230.682 151.641 230.682H132.045C87.9027 230.682 51.7932 194.572 51.7932 150.403C51.7932 106.26 87.9027 70.1245 132.045 70.1245Z" stroke="black" stroke-width="6.68862" stroke-miterlimit="22.926"/>
<path fill-rule="evenodd" clip-rule="evenodd" d="M45.9461 74.0491L66.6478 53.3737C78.0786 64.8044 78.0786 83.3201 66.6478 94.7508C55.1908 106.182 36.6751 106.182 25.2443 94.7508L45.9461 74.0491Z" fill="#341B14"/>
<path fill-rule="evenodd" clip-rule="evenodd" d="M74.997 162.466C88.0607 145.899 113.451 151.667 135.443 177.9C136.575 179.744 137.682 179.981 137.971 178.164C138.999 171.658 139.288 164.02 138.261 154.301C138.077 153.142 139.157 152.747 139.446 153.906C140.816 165.469 141.343 176.847 138.366 188.725C135.206 201.367 112.371 207.847 92.0114 198.839C88.2714 198.233 84.9264 198.628 81.3708 201.552C80.0275 202.632 78.974 201.71 79.9485 200.525C80.8177 199.55 81.9239 198.76 83.3198 198.128C79.3428 198.365 76.3139 199.708 74.3122 202.289C73.443 203.527 72.4948 202.895 72.9953 201.947C75.2077 197.996 79.2901 195.52 88.4821 196.6C78.7633 187.566 76.3402 175.266 82.556 159.068C80.2909 159.411 77.7098 160.675 74.997 162.466Z" fill="#110F0D"/>
<path fill-rule="evenodd" clip-rule="evenodd" d="M136.286 183.089C138.182 187.646 136.154 191.755 132.835 194.783C124.486 202.395 101.967 204.476 90.5101 195.837C80.6596 188.41 78.4209 171.422 84.1626 160.728C93.618 143.029 130.676 169.736 136.286 183.089Z" fill="white"/>
<path fill-rule="evenodd" clip-rule="evenodd" d="M129.57 175.714C132.493 175.714 134.864 179.296 134.864 183.694C134.864 188.119 132.493 191.701 129.57 191.701C126.646 191.701 124.276 188.119 124.276 183.694C124.276 179.296 126.646 175.714 129.57 175.714Z" fill="black"/>
<path fill-rule="evenodd" clip-rule="evenodd" d="M129.57 176.847C131.255 176.847 132.651 178.216 132.651 179.902C132.651 181.588 131.255 182.957 129.57 182.957C127.858 182.957 126.462 181.588 126.462 179.902C126.462 178.216 127.858 176.847 129.57 176.847Z" fill="white"/>
<path fill-rule="evenodd" clip-rule="evenodd" d="M153.932 175.714C156.856 175.714 159.226 179.296 159.226 183.694C159.226 188.119 156.856 191.701 153.932 191.701C150.982 191.701 148.612 188.119 148.612 183.694C148.612 179.296 150.982 175.714 153.932 175.714Z" fill="black"/>
<path fill-rule="evenodd" clip-rule="evenodd" d="M153.932 176.847C155.618 176.847 157.014 178.216 157.014 179.902C157.014 181.588 155.618 182.957 153.932 182.957C152.22 182.957 150.824 181.588 150.824 179.902C150.824 178.216 152.22 176.847 153.932 176.847Z" fill="white"/>
<path d="M238.109 74.049L217.407 53.3736C205.976 64.8044 205.976 83.3201 217.407 94.7508C228.838 106.182 247.38 106.182 258.811 94.7508L238.109 74.049Z" stroke="#231F20" stroke-width="6.68862" stroke-miterlimit="22.926"/>
<path d="M45.9461 74.049L66.6478 53.3736C78.0786 64.8044 78.0786 83.3201 66.6478 94.7508C55.1907 106.182 36.6751 106.182 25.2443 94.7508L45.9461 74.049Z" stroke="#231F20" stroke-width="6.68862" stroke-miterlimit="22.926"/>
</svg>
