<svg width="284" height="284" viewBox="0 0 284 284" fill="none" xmlns="http://www.w3.org/2000/svg">
<path fill-rule="evenodd" clip-rule="evenodd" d="M132.029 60.1688H152.02C197.058 60.1688 233.931 97.0158 233.931 142.08C233.931 187.145 197.058 223.992 152.02 223.992H132.029C86.9908 223.992 50.1175 187.145 50.1175 142.08C50.1175 97.0158 86.9908 60.1688 132.029 60.1688Z" fill="#FBCA8F"/>
<path fill-rule="evenodd" clip-rule="evenodd" d="M132.029 60.0634H152.02C197.058 60.0634 237.829 103.1 233.931 141.975L232.272 158.436H150.518L141.853 140L133.741 158.436H51.7767L50.1174 141.975C46.351 104.364 85.3314 60.0634 132.029 60.0634Z" fill="#341B14"/>
<path fill-rule="evenodd" clip-rule="evenodd" d="M117.886 184.616C133.451 189.673 149.412 189.357 165.241 184.511C167.77 183.72 169.508 183.905 169.456 185.09C168.902 197.258 163.925 208.268 151.835 216.643C144.882 221.489 137.507 221.647 130.739 216.643C120.256 208.952 114.093 198.997 113.961 185.617C113.935 183.72 115.015 183.694 117.886 184.616Z" fill="#110F0D"/>
<path fill-rule="evenodd" clip-rule="evenodd" d="M121.309 204.185C134.268 197.996 147.779 198.286 161.765 204.185C159.263 208.452 155.865 212.614 150.334 216.064C144.829 219.462 138.614 219.778 132.74 216.064C127.209 212.561 123.574 208.558 121.309 204.185Z" fill="#ED1C24"/>
<path d="M51.7768 158.436H133.741L141.853 140L150.518 158.436H232.272" stroke="black" stroke-width="6.68862" stroke-miterlimit="22.926"/>
<path fill-rule="evenodd" clip-rule="evenodd" d="M150.94 175.846C160.711 164.679 171.457 163.81 183.257 175.846C184.284 176.9 186.338 176.188 185.337 174.898C173.011 158.674 159.5 158.252 149.175 174.924C148.227 176.452 149.702 177.242 150.94 175.846Z" fill="black"/>
<path fill-rule="evenodd" clip-rule="evenodd" d="M100.897 175.846C110.669 164.679 121.441 163.81 133.241 175.846C134.268 176.9 136.322 176.188 135.321 174.898C122.995 158.674 109.484 158.252 99.1328 174.924C98.2109 176.452 99.6859 177.242 100.897 175.846Z" fill="black"/>
<path fill-rule="evenodd" clip-rule="evenodd" d="M115.778 186.17C132.766 191.28 150.097 191.517 167.77 186.17C167.77 188.514 167.559 190.753 166.532 193.176C149.807 196.679 133.214 196.732 116.7 193.176C116.068 191.175 115.62 188.988 115.778 186.17Z" fill="white"/>
<path d="M132.029 60.169H152.02C197.058 60.169 233.931 97.016 233.931 142.081C233.931 187.145 197.058 223.992 152.02 223.992H132.029C86.9908 223.992 50.1175 187.145 50.1175 142.081C50.1175 97.016 86.9908 60.169 132.029 60.169Z" stroke="black" stroke-width="6.68862" stroke-miterlimit="22.926"/>
</svg>
