<svg width="284" height="284" viewBox="0 0 284 284" fill="none" xmlns="http://www.w3.org/2000/svg">
<path fill-rule="evenodd" clip-rule="evenodd" d="M45.9461 74.0491L66.6478 53.3737C78.0786 64.8044 78.0786 83.3201 66.6478 94.7508C55.2171 106.182 36.6751 106.182 25.2443 94.7508L45.9461 74.0491Z" fill="#341B14"/>
<path fill-rule="evenodd" clip-rule="evenodd" d="M238.135 74.0491L217.434 53.3737C206.003 64.8044 206.003 83.3201 217.434 94.7508C228.864 106.182 247.38 106.182 258.811 94.7508L238.135 74.0491Z" fill="#341B14"/>
<path d="M45.9461 74.049L66.6478 53.3736C78.0786 64.8044 78.0786 83.3201 66.6478 94.7508C55.2171 106.182 36.6751 106.182 25.2443 94.7508L45.9461 74.049Z" stroke="#110F0D" stroke-width="6.68862" stroke-miterlimit="22.926"/>
<path d="M238.135 74.049L217.434 53.3736C206.003 64.8044 206.003 83.3201 217.434 94.7508C228.864 106.182 247.38 106.182 258.811 94.7508L238.135 74.049Z" stroke="#110F0D" stroke-width="6.68862" stroke-miterlimit="22.926"/>
<path fill-rule="evenodd" clip-rule="evenodd" d="M131.887 70.1245H151.457C195.599 70.1245 231.735 106.26 231.735 150.403C231.735 194.572 195.599 230.682 151.457 230.682H131.887C87.7183 230.682 51.6088 194.572 51.6088 150.403C51.6088 106.26 87.7183 70.1245 131.887 70.1245Z" fill="#FBCA8F"/>
<path fill-rule="evenodd" clip-rule="evenodd" d="M131.887 70.0194H151.457C195.599 70.0194 235.554 112.213 231.735 150.298L230.128 166.417H150.008L141.501 148.375L133.547 166.417H53.2154L51.6088 150.298C47.9214 113.451 86.1117 70.0194 131.887 70.0194Z" fill="#341B14"/>
<path d="M53.2154 166.443H133.547L141.501 148.349L149.718 166.443H230.129" stroke="black" stroke-width="6.68862" stroke-miterlimit="22.926"/>
<path fill-rule="evenodd" clip-rule="evenodd" d="M176.135 161.939C169.287 160.016 162.729 157.066 156.355 151.087C154.196 149.033 151.351 149.296 149.982 151.535C145.952 158.146 144.424 165.573 144.793 172.922C145.056 178.532 146.136 184.063 150.061 189.067C153.616 193.597 158.489 194.256 163.519 194.071C168.234 193.913 173.08 193.149 177.057 189.488C180.929 185.906 181.034 178.268 180.534 168.629C180.376 165.389 179.296 162.834 176.135 161.939Z" fill="white"/>
<path d="M176.135 161.939C169.287 160.017 162.729 157.067 156.355 151.088C154.196 149.034 151.351 149.297 149.982 151.536C145.952 158.147 144.424 165.574 144.793 172.922C145.056 178.532 146.136 184.063 150.061 189.067C153.616 193.598 158.489 194.256 163.519 194.072C168.234 193.914 173.08 193.15 177.057 189.489C180.929 185.907 181.034 178.269 180.534 168.629C180.376 165.39 179.296 162.835 176.135 161.939Z" stroke="#110F0D" stroke-width="3.82303" stroke-miterlimit="22.926"/>
<path fill-rule="evenodd" clip-rule="evenodd" d="M108.262 161.939C115.084 160.016 121.642 157.066 128.016 151.087C130.202 149.033 133.046 149.296 134.416 151.535C138.419 158.146 139.973 165.573 139.604 172.922C139.315 178.532 138.235 184.063 134.31 189.067C130.781 193.597 125.882 194.256 120.878 194.071C116.137 193.913 111.291 193.149 107.314 189.488C103.442 185.906 103.337 178.268 103.837 168.629C103.995 165.389 105.075 162.834 108.262 161.939Z" fill="white"/>
<path d="M108.262 161.939C115.084 160.017 121.642 157.067 128.016 151.088C130.202 149.034 133.046 149.297 134.416 151.536C138.419 158.147 139.973 165.574 139.604 172.922C139.315 178.532 138.235 184.063 134.31 189.067C130.781 193.598 125.882 194.256 120.878 194.072C116.137 193.914 111.291 193.15 107.314 189.489C103.442 185.907 103.337 178.269 103.837 168.629C103.995 165.39 105.075 162.835 108.262 161.939Z" stroke="#110F0D" stroke-width="3.82303" stroke-miterlimit="22.926"/>
<path fill-rule="evenodd" clip-rule="evenodd" d="M130.649 166.391C133.573 166.391 135.97 169.972 135.97 174.371C135.97 178.796 133.573 182.378 130.649 182.378C127.726 182.378 125.355 178.796 125.355 174.371C125.355 169.972 127.726 166.391 130.649 166.391Z" fill="black"/>
<path fill-rule="evenodd" clip-rule="evenodd" d="M127.858 168.919C129.833 166.706 132.361 166.759 133.994 169.63C134.969 171.289 134.047 172.527 132.862 172.843C132.072 173.054 131.756 173.449 131.255 173.976C130.676 174.529 130.07 174.634 129.464 173.949C129.043 173.502 129.043 172.791 128.174 172.633C126.804 172.343 126.541 170.367 127.858 168.919Z" fill="white"/>
<path fill-rule="evenodd" clip-rule="evenodd" d="M126.936 174.792C127.226 173.791 128.016 173.633 128.516 174.292C129.017 174.924 129.333 175.609 128.964 176.399C128.358 177.163 128.99 178.664 129.728 177.768C130.07 177.347 130.307 177.61 130.413 178.058C130.597 179.349 129.412 180.481 128.042 179.217C126.857 178.111 126.462 176.53 126.936 174.792Z" fill="white"/>
<path fill-rule="evenodd" clip-rule="evenodd" d="M133.362 173.976C134.389 173.976 135.206 174.792 135.206 175.793C135.206 176.768 134.389 177.584 133.362 177.584C132.361 177.584 131.545 176.768 131.545 175.793C131.545 174.792 132.361 173.976 133.362 173.976Z" fill="white"/>
<path fill-rule="evenodd" clip-rule="evenodd" d="M153.485 166.391C150.561 166.391 148.191 169.972 148.191 174.371C148.191 178.796 150.561 182.378 153.485 182.378C156.434 182.378 158.805 178.796 158.805 174.371C158.805 169.972 156.434 166.391 153.485 166.391Z" fill="black"/>
<path fill-rule="evenodd" clip-rule="evenodd" d="M156.303 168.919C154.327 166.706 151.799 166.759 150.14 169.63C149.191 171.289 150.113 172.527 151.272 172.843C152.089 173.054 152.405 173.449 152.905 173.976C153.485 174.529 154.09 174.634 154.67 173.949C155.117 173.502 155.117 172.791 155.987 172.633C157.356 172.343 157.62 170.367 156.303 168.919Z" fill="white"/>
<path fill-rule="evenodd" clip-rule="evenodd" d="M157.225 174.792C156.935 173.791 156.145 173.633 155.644 174.292C155.144 174.924 154.828 175.609 155.197 176.399C155.802 177.163 155.17 178.664 154.407 177.768C154.09 177.347 153.827 177.61 153.748 178.058C153.537 179.349 154.749 180.481 156.119 179.217C157.304 178.111 157.699 176.53 157.225 174.792Z" fill="white"/>
<path fill-rule="evenodd" clip-rule="evenodd" d="M150.772 173.976C149.771 173.976 148.954 174.792 148.954 175.793C148.954 176.768 149.771 177.584 150.772 177.584C151.773 177.584 152.589 176.768 152.589 175.793C152.589 174.792 151.773 173.976 150.772 173.976Z" fill="white"/>
<path fill-rule="evenodd" clip-rule="evenodd" d="M107.525 199.682C118.587 198.496 118.165 210.691 134.969 203.474C138.077 202.157 140.526 201.025 143.265 201.104C147.611 201.235 150.245 204.291 155.223 204.317C163.73 204.396 165.258 196.942 177.215 199.892C192.939 203.817 191.491 218.408 178.848 221.568C165.758 224.861 155.118 223.702 146.005 217.644C138.419 212.587 131.624 212.271 124.723 214.984C121.905 216.09 115.426 223.886 103.1 212.034C98.8857 206.161 100.492 200.419 107.525 199.682Z" fill="#110F0D"/>
<path fill-rule="evenodd" clip-rule="evenodd" d="M116.19 203.896C122.037 208.242 128.753 208.821 136.602 204.397C140.632 202.131 144.029 202.079 147.032 203.633C151.667 206.003 157.356 206.899 161.834 204.449C169.63 200.209 177.163 199.814 184.353 205.292C187.829 207.978 188.119 213.641 184.695 216.67C175.503 224.756 155.407 222.886 145.53 215.696C137.155 209.585 128.068 210.244 118.797 216.512C117.033 217.697 114.741 217.513 112.555 216.933C109.684 212.43 110.738 205.187 116.19 203.896Z" fill="#ED1C24"/>
<path fill-rule="evenodd" clip-rule="evenodd" d="M148.612 186.17C149.508 188.303 151.009 190.621 153.248 192.359C155.934 194.44 161.86 194.572 165.468 194.124C172.685 193.202 179.375 192.096 180.297 181.218C176.056 179.164 171.948 186.697 164.52 183.8C160.069 182.061 156.856 188.936 148.612 186.17Z" fill="#00ADEF"/>
<path d="M148.612 186.17C149.508 188.304 151.009 190.621 153.248 192.36C155.934 194.44 161.86 194.572 165.468 194.124C172.685 193.203 179.375 192.096 180.297 181.219C176.056 179.164 171.948 186.697 164.52 183.8C160.069 182.062 156.856 188.936 148.612 186.17Z" stroke="black" stroke-width="3.82303" stroke-miterlimit="22.926"/>
<path fill-rule="evenodd" clip-rule="evenodd" d="M135.864 186.17C134.969 188.303 133.468 190.621 131.229 192.359C128.516 194.44 122.616 194.572 119.008 194.124C111.791 193.202 105.101 192.096 104.153 181.218C108.394 179.164 112.529 186.697 119.956 183.8C124.407 182.061 127.621 188.936 135.864 186.17Z" fill="#00ADEF"/>
<path d="M135.864 186.17C134.969 188.304 133.468 190.621 131.229 192.36C128.516 194.44 122.616 194.572 119.008 194.124C111.791 193.203 105.101 192.096 104.153 181.219C108.394 179.164 112.529 186.697 119.956 183.8C124.407 182.062 127.621 188.936 135.864 186.17Z" stroke="black" stroke-width="3.82303" stroke-miterlimit="22.926"/>
<path d="M131.887 70.1245H151.457C195.599 70.1245 231.735 106.26 231.735 150.403C231.735 194.572 195.599 230.682 151.457 230.682H131.887C87.7183 230.682 51.6088 194.572 51.6088 150.403C51.6088 106.26 87.7183 70.1245 131.887 70.1245Z" stroke="black" stroke-width="6.68862" stroke-miterlimit="22.926"/>
<path d="M97.5688 158.7C108.973 157.33 119.245 151.747 128.411 142.107" stroke="#110F0D" stroke-width="3.82303" stroke-miterlimit="22.926" stroke-linecap="round"/>
<path d="M185.749 158.7C174.344 157.33 164.099 151.747 154.933 142.107" stroke="#110F0D" stroke-width="3.82303" stroke-miterlimit="22.926" stroke-linecap="round"/>
</svg>
