<svg width="284" height="284" viewBox="0 0 284 284" fill="none" xmlns="http://www.w3.org/2000/svg">
<path fill-rule="evenodd" clip-rule="evenodd" d="M132.029 60.1688H152.019C197.058 60.1688 233.931 97.0158 233.931 142.08C233.931 187.145 197.058 223.992 152.019 223.992H132.029C86.9906 223.992 50.1173 187.145 50.1173 142.08C50.1173 97.0158 86.9906 60.1688 132.029 60.1688Z" fill="#FBCA8F"/>
<path fill-rule="evenodd" clip-rule="evenodd" d="M132.029 60.0634H152.02C197.058 60.0634 237.829 103.1 233.931 141.975L232.272 158.436H150.518L141.853 140L133.741 158.436H51.7767L50.1174 141.975C46.351 104.364 85.3314 60.0634 132.029 60.0634Z" fill="#341B14"/>
<path fill-rule="evenodd" clip-rule="evenodd" d="M131.66 195.441C138.745 198.97 145.988 198.733 153.178 195.362C154.311 194.809 155.101 194.941 155.075 195.757C154.838 204.238 152.573 211.929 147.094 217.776C143.934 221.147 140.589 221.252 137.507 217.776C132.74 212.403 129.948 205.476 129.895 196.126C129.895 194.809 130.369 194.783 131.66 195.441Z" fill="#110F0D"/>
<path fill-rule="evenodd" clip-rule="evenodd" d="M134.004 208.9C139.298 204.818 144.776 205.028 150.465 208.9C149.438 211.744 148.069 214.51 145.83 216.775C143.565 219.014 141.036 219.224 138.666 216.775C136.427 214.457 134.926 211.797 134.004 208.9Z" fill="#ED1C24"/>
<path d="M51.7766 158.436H133.741L141.853 140L150.518 158.436H232.272" stroke="black" stroke-width="6.68862" stroke-miterlimit="22.926"/>
<path fill-rule="evenodd" clip-rule="evenodd" d="M172.194 146.321C165.847 135.206 156.444 138.262 150.702 147.427C141.3 162.414 162.476 169.077 165.188 180.455C168.059 174.476 175.249 174.608 181.255 171.421C187.813 167.945 193.423 162.572 190.973 153.406C188.445 143.924 180.622 138.973 172.194 146.321Z" fill="#ED1C24"/>
<path fill-rule="evenodd" clip-rule="evenodd" d="M107.587 142.66C115.699 128.411 127.736 132.336 135.111 144.056C147.147 163.257 120.019 171.79 116.569 186.355C112.881 178.717 103.663 178.875 95.9721 174.793C87.5702 170.342 80.3799 163.467 83.5142 151.72C86.7801 139.579 96.7886 133.231 107.587 142.66Z" fill="#ED1C24"/>
<path d="M172.194 146.321C165.847 135.206 156.444 138.261 150.702 147.427C141.3 162.413 162.476 169.077 165.188 180.455C168.059 174.476 175.249 174.608 181.255 171.421C187.813 167.944 193.423 162.571 190.973 153.406C188.445 143.924 180.622 138.972 172.194 146.321Z" stroke="black" stroke-width="6.68862" stroke-miterlimit="22.926"/>
<path d="M107.587 142.66C115.699 128.411 127.736 132.335 135.111 144.055C147.147 163.256 120.019 171.79 116.569 186.354C112.881 178.716 103.663 178.874 95.9721 174.792C87.5702 170.341 80.3799 163.467 83.5142 151.72C86.7801 139.578 96.7886 133.231 107.587 142.66Z" stroke="black" stroke-width="6.68862" stroke-miterlimit="22.926"/>
<path d="M132.029 60.169H152.019C197.058 60.169 233.931 97.016 233.931 142.081C233.931 187.145 197.058 223.992 152.019 223.992H132.029C86.9906 223.992 50.1173 187.145 50.1173 142.081C50.1173 97.016 86.9906 60.169 132.029 60.169Z" stroke="black" stroke-width="6.68862" stroke-miterlimit="22.926"/>
</svg>
