<svg width="284" height="284" viewBox="0 0 284 284" fill="none" xmlns="http://www.w3.org/2000/svg">
<path fill-rule="evenodd" clip-rule="evenodd" d="M132.243 70.6511H151.812C195.981 70.6511 232.091 106.787 232.091 150.93C232.091 195.072 195.981 231.208 151.812 231.208H132.243C88.0739 231.208 51.9644 195.072 51.9644 150.93C51.9644 106.787 88.0739 70.6511 132.243 70.6511Z" fill="#FBCA8F"/>
<path fill-rule="evenodd" clip-rule="evenodd" d="M132.243 70.546H151.812C195.955 70.546 235.91 112.74 232.091 150.825L230.458 166.944H150.363L141.856 148.876L133.902 166.944H53.5709L51.9643 150.825C48.2506 113.951 86.4672 70.546 132.243 70.546Z" fill="#341B14"/>
<path d="M53.571 166.943H133.902L141.856 148.875L150.047 166.943H230.458" stroke="black" stroke-width="6.68862" stroke-miterlimit="22.926"/>
<path d="M132.243 70.6511H151.812C195.981 70.6511 232.091 106.787 232.091 150.93C232.091 195.072 195.981 231.208 151.812 231.208H132.243C88.0739 231.208 51.9644 195.072 51.9644 150.93C51.9644 106.787 88.0739 70.6511 132.243 70.6511Z" stroke="black" stroke-width="6.68862" stroke-miterlimit="22.926"/>
<path fill-rule="evenodd" clip-rule="evenodd" d="M91.4979 168.523C108.828 173.844 127.37 177.32 148.02 177.715C148.731 176.688 149.363 175.661 149.89 174.66C151.075 172.764 153.551 173.659 152.787 175.951C151.575 178.295 150.1 180.586 148.283 182.798C146.703 184.221 144.648 182.957 145.175 181.113L142.884 180.797C145.86 187.645 145.623 194.229 142.541 200.55C132.427 200.761 122.314 202.763 112.2 207.899C98.0825 203.764 95.2379 185.933 110.014 176.714C103.534 175.345 97.0553 173.712 90.6288 171.499C88.2057 170.894 88.5744 167.786 91.4979 168.523Z" fill="#110F0D"/>
<path fill-rule="evenodd" clip-rule="evenodd" d="M112.516 178.032C121.497 178.506 130.821 179.401 140.46 180.771C144.148 187.25 143.884 193.202 140.987 198.76C131.953 199.102 123.13 200.366 115.255 204.264C112.437 205.687 111.172 205.16 108.196 203.553C100.268 199.208 99.8207 184.801 112.516 178.032Z" fill="white"/>
<path fill-rule="evenodd" clip-rule="evenodd" d="M152.102 181.877C151.075 183.036 153.103 184.248 154.288 182.799C157.211 179.296 159.16 175.293 158.66 170.157C158.555 168.893 156.658 168.866 156.658 170.183C156.658 175.451 154.788 178.848 152.102 181.877Z" fill="#110F0D"/>
<path fill-rule="evenodd" clip-rule="evenodd" d="M163.533 167.049C164.059 172.396 165.192 175.135 167.141 174.45C169.064 172.132 170.96 172.264 172.856 174.239C180.889 175.951 188.975 172.053 197.087 160.175C198.72 158.147 201.222 159.069 200.301 161.386C198.852 163.809 197.061 165.732 195.086 168.155C206.279 172.949 206.938 184.142 197.43 191.333C187.395 190.595 178.177 191.912 170.249 196.495C164.428 191.438 163.533 185.012 167.009 177.347C163.375 177.189 160.767 174.661 160.372 166.891C160.504 164.494 163.296 164.626 163.533 167.049Z" fill="#110F0D"/>
<path fill-rule="evenodd" clip-rule="evenodd" d="M169.274 177.505C179.546 178.585 187.421 175.688 193.374 169.867C203.066 173.238 204.33 181.666 197.272 189.331C187.737 188.435 178.861 189.858 170.697 193.782C166.904 190.753 166.114 185.406 169.274 177.505Z" fill="white"/>
<path fill-rule="evenodd" clip-rule="evenodd" d="M94.5265 219.488C93.1043 220.594 94.2368 222.069 96.2912 220.436C97.6608 219.33 99.1357 218.408 100.795 217.776C99.6625 218.935 100.848 220.014 102.165 218.908C105.114 216.037 109.171 213.404 112.278 212.666C110.672 213.219 109.513 214.036 108.907 215.221C108.249 216.511 109.539 217.065 110.672 216.169C112.252 214.905 113.832 214.036 115.413 213.746C114.728 215.221 115.887 215.879 117.493 214.905C121.128 212.745 125.158 211.455 130.452 211.402C131.821 211.376 131.268 209.795 130.452 209.69C129.477 209.558 128.582 209.506 127.634 209.901C127.713 209.005 127.317 208.531 126.317 208.584C123.999 208.715 121.707 209.189 119.39 210.164C119.363 209.005 118.6 208.715 117.388 209.031C115.887 209.426 114.306 209.901 112.726 210.638C112.436 209.453 111.409 209.558 109.539 210.348C104.324 212.587 99.3728 215.721 94.5265 219.488Z" fill="#110F0D"/>
<path fill-rule="evenodd" clip-rule="evenodd" d="M178.071 203.316C176.728 204.37 177.808 205.766 179.757 204.212C181.047 203.158 182.443 202.289 184.023 201.683C182.944 202.789 184.076 203.817 185.314 202.763C188.106 200.05 191.951 197.548 194.901 196.837C193.4 197.364 192.267 198.154 191.714 199.26C191.082 200.498 192.32 200.999 193.4 200.156C194.875 198.97 196.376 198.154 197.877 197.864C197.219 199.287 198.325 199.892 199.826 198.97C203.277 196.942 207.096 195.705 212.1 195.652C213.417 195.626 212.89 194.124 212.1 194.019C211.204 193.914 210.335 193.861 209.44 194.256C209.519 193.387 209.15 192.939 208.202 192.992C206.016 193.123 203.83 193.571 201.617 194.493C201.617 193.387 200.88 193.097 199.721 193.413C198.299 193.756 196.824 194.23 195.323 194.941C195.059 193.808 194.058 193.914 192.294 194.677C187.342 196.784 182.654 199.734 178.071 203.316Z" fill="#110F0D"/>
<path fill-rule="evenodd" clip-rule="evenodd" d="M135.008 180.955C138.301 180.955 140.987 184.985 140.987 189.937C140.987 194.915 138.301 198.944 135.008 198.944C131.716 198.944 129.056 194.915 129.056 189.937C129.056 184.985 131.716 180.955 135.008 180.955Z" fill="black"/>
<path fill-rule="evenodd" clip-rule="evenodd" d="M135.008 182.219C136.931 182.219 138.485 183.773 138.485 185.67C138.485 187.566 136.931 189.094 135.008 189.094C133.086 189.094 131.532 187.566 131.532 185.67C131.532 183.773 133.086 182.219 135.008 182.219Z" fill="white"/>
<path fill-rule="evenodd" clip-rule="evenodd" d="M175.938 176.583C172.988 176.583 170.591 180.192 170.591 184.643C170.591 189.094 172.988 192.729 175.938 192.729C178.914 192.729 181.311 189.094 181.311 184.643C181.311 180.192 178.914 176.583 175.938 176.583Z" fill="black"/>
<path fill-rule="evenodd" clip-rule="evenodd" d="M175.938 177.716C174.226 177.716 172.83 179.112 172.83 180.797C172.83 182.509 174.226 183.879 175.938 183.879C177.676 183.879 179.072 182.509 179.072 180.797C179.072 179.112 177.676 177.716 175.938 177.716Z" fill="white"/>
<path fill-rule="evenodd" clip-rule="evenodd" d="M45.9329 73.5486L66.6347 52.8468C78.0654 64.2775 78.0654 82.8196 66.6347 94.2503C55.2039 105.681 36.6619 105.681 25.2312 94.2503L45.9329 73.5486Z" fill="#341B14"/>
<path fill-rule="evenodd" clip-rule="evenodd" d="M238.122 73.5486L217.42 52.8468C205.99 64.2775 205.99 82.8196 217.42 94.2503C228.851 105.681 247.367 105.681 258.824 94.2503L238.122 73.5486Z" fill="#341B14"/>
<path d="M45.9329 73.5484L66.6347 52.8467C78.0654 64.2774 78.0654 82.8194 66.6347 94.2502C55.2039 105.681 36.6619 105.681 25.2312 94.2502L45.9329 73.5484Z" stroke="black" stroke-width="6.68862" stroke-miterlimit="22.926"/>
<path d="M238.122 73.5484L217.42 52.8467C205.99 64.2774 205.99 82.8194 217.42 94.2502C228.851 105.681 247.367 105.681 258.824 94.2502L238.122 73.5484Z" stroke="black" stroke-width="6.68862" stroke-miterlimit="22.926"/>
<path d="M148.942 219.974C155.368 208.28 161.005 205.12 165.64 212.679" stroke="#231F20" stroke-width="3.82303" stroke-miterlimit="22.926" stroke-linecap="round"/>
</svg>
