<svg width="284" height="284" viewBox="0 0 284 284" fill="none" xmlns="http://www.w3.org/2000/svg">
<path fill-rule="evenodd" clip-rule="evenodd" d="M132.23 70.6511H151.825C195.968 70.6511 232.104 106.787 232.104 150.93C232.104 195.072 195.968 231.208 151.825 231.208H132.23C88.0871 231.208 51.9512 195.072 51.9512 150.93C51.9512 106.787 88.0871 70.6511 132.23 70.6511Z" fill="#FBCA8F"/>
<path fill-rule="evenodd" clip-rule="evenodd" d="M132.23 70.546H151.825C195.968 70.546 235.923 112.74 232.104 150.825L230.471 166.944H150.35L141.869 148.902L133.915 166.944H53.5841L51.9511 150.825C48.2638 113.951 86.4804 70.546 132.23 70.546Z" fill="#341B14"/>
<path d="M53.5841 166.943H133.915L141.869 148.875L150.35 166.943H230.471" stroke="black" stroke-width="6.68862" stroke-miterlimit="22.926"/>
<path d="M132.23 70.6511H151.825C195.968 70.6511 232.104 106.787 232.104 150.93C232.104 195.072 195.968 231.208 151.825 231.208H132.23C88.0871 231.208 51.9512 195.072 51.9512 150.93C51.9512 106.787 88.0871 70.6511 132.23 70.6511Z" stroke="black" stroke-width="6.68862" stroke-miterlimit="22.926"/>
<path fill-rule="evenodd" clip-rule="evenodd" d="M45.9461 73.5486L66.6478 52.8468C78.0786 64.2775 78.0786 82.8196 66.6478 94.2503C55.2171 105.681 36.6751 105.681 25.2443 94.2503L45.9461 73.5486Z" fill="#341B14"/>
<path fill-rule="evenodd" clip-rule="evenodd" d="M238.109 73.5486L217.407 52.8468C206.003 64.2775 206.003 82.8196 217.407 94.2503C228.864 105.681 247.38 105.681 258.811 94.2503L238.109 73.5486Z" fill="#341B14"/>
<path d="M45.9461 73.5484L66.6478 52.8467C78.0786 64.2774 78.0786 82.8194 66.6478 94.2502C55.2171 105.681 36.675 105.681 25.2443 94.2502L45.9461 73.5484Z" stroke="black" stroke-width="6.68862" stroke-miterlimit="22.926"/>
<path d="M238.109 73.5484L217.407 52.8467C206.003 64.2774 206.003 82.8194 217.407 94.2502C228.864 105.681 247.38 105.681 258.811 94.2502L238.109 73.5484Z" stroke="black" stroke-width="6.68862" stroke-miterlimit="22.926"/>
<path fill-rule="evenodd" clip-rule="evenodd" d="M126.304 201.762C119.745 199.602 113.187 198.681 106.629 199.102C86.9281 163.203 101.098 143.265 115.61 142.686C130.544 142.133 145.873 161.965 126.304 201.762Z" fill="white"/>
<path d="M126.304 201.763C119.745 199.603 113.187 198.681 106.629 199.102C86.9281 163.204 101.098 143.266 115.61 142.686C130.544 142.133 145.873 161.966 126.304 201.763Z" stroke="black" stroke-width="3.82303" stroke-miterlimit="22.926"/>
<path fill-rule="evenodd" clip-rule="evenodd" d="M149.771 128.358C150.298 134.653 150.245 142.159 156.829 142.712C164.204 143.344 168.787 123.802 176.715 132.783C169.261 127.436 165.389 147.954 154.09 144.082C150.034 142.686 148.401 137.761 149.771 128.358Z" fill="black"/>
<path fill-rule="evenodd" clip-rule="evenodd" d="M117.823 153.142C124.381 153.142 129.701 161.149 129.701 171.026C129.701 180.929 124.381 188.936 117.823 188.936C111.265 188.936 105.944 180.929 105.944 171.026C105.944 161.149 111.265 153.142 117.823 153.142Z" fill="black"/>
<path fill-rule="evenodd" clip-rule="evenodd" d="M117.823 163.388C120.746 163.388 123.09 165.732 123.09 168.603C123.09 171.5 120.746 173.818 117.823 173.818C114.899 173.818 112.555 171.5 112.555 168.603C112.555 165.732 114.899 163.388 117.823 163.388Z" fill="white"/>
<path fill-rule="evenodd" clip-rule="evenodd" d="M150.666 181.666C162.598 184.326 174.529 184.194 186.46 181.666C189.937 159.173 178.269 148.19 168.076 147.716C157.119 147.242 145.451 158.488 150.666 181.666Z" fill="white"/>
<path d="M150.666 181.666C162.598 184.326 174.529 184.195 186.46 181.666C189.937 159.173 178.269 148.19 168.076 147.716C157.119 147.242 145.451 158.489 150.666 181.666Z" stroke="black" stroke-width="3.82303" stroke-miterlimit="22.926"/>
<path fill-rule="evenodd" clip-rule="evenodd" d="M155.407 182.588C153.695 179.401 152.852 175.714 152.852 171.605C152.852 161.781 158.173 153.801 164.757 153.801C171.315 153.801 176.662 161.781 176.662 171.605C176.662 175.925 175.609 180.086 173.712 183.352C167.602 183.563 161.439 183.168 155.407 182.588Z" fill="#231F20"/>
<path fill-rule="evenodd" clip-rule="evenodd" d="M165.021 163.388C168.208 163.388 170.762 165.942 170.762 169.05C170.762 172.185 168.208 174.713 165.021 174.713C161.86 174.713 159.305 172.185 159.305 169.05C159.305 165.942 161.86 163.388 165.021 163.388Z" fill="white"/>
<path fill-rule="evenodd" clip-rule="evenodd" d="M125.092 216.538C126.409 211.481 129.596 209.4 135.338 209.084C141.185 208.742 149.639 210.296 159.279 216.617C162.756 218.882 160.754 222.833 154.643 224.624C152.273 211.428 131.993 204.449 125.092 216.538Z" fill="#231F20"/>
<path fill-rule="evenodd" clip-rule="evenodd" d="M121.273 215.563C121.484 217.723 124.407 219.172 124.328 220.278C124.223 221.226 123.248 221.358 122.274 221.015C121.036 220.568 120.536 218.987 121.273 215.563Z" fill="#231F20"/>
<path fill-rule="evenodd" clip-rule="evenodd" d="M136.101 140.526C126.225 143.291 125.988 121.431 117.138 120.799C114.188 120.588 110.027 122.168 105.128 128.726C107.472 120.878 111.449 117.138 117.559 117.217C130.307 117.375 125.329 137.76 136.101 140.526Z" fill="black"/>
</svg>
