<svg width="284" height="284" viewBox="0 0 284 284" fill="none" xmlns="http://www.w3.org/2000/svg">
<path fill-rule="evenodd" clip-rule="evenodd" d="M132.031 60.1688H151.995C197.059 60.1688 233.933 97.0422 233.933 142.08C233.933 187.145 197.059 223.992 151.995 223.992H132.031C86.9661 223.992 50.1191 187.145 50.1191 142.08C50.1191 97.0422 86.9661 60.1688 132.031 60.1688Z" fill="#FBCA8F"/>
<path fill-rule="evenodd" clip-rule="evenodd" d="M132.031 60.0634H151.995C197.059 60.0634 237.804 103.126 233.933 141.975L232.273 158.436H150.52L141.855 140L133.716 158.436H51.7519L50.119 141.975C46.3526 104.364 85.333 60.0634 132.031 60.0634Z" fill="#341B14"/>
<path fill-rule="evenodd" clip-rule="evenodd" d="M131.662 195.441C138.72 198.971 145.963 198.76 153.154 195.362C154.313 194.836 155.103 194.941 155.076 195.784C154.813 204.265 152.548 211.929 147.07 217.776C143.935 221.147 140.59 221.253 137.509 217.776C132.742 212.403 129.95 205.476 129.897 196.126C129.871 194.809 130.371 194.809 131.662 195.441Z" fill="#110F0D"/>
<path fill-rule="evenodd" clip-rule="evenodd" d="M134.006 208.926C139.274 204.818 144.778 205.028 150.467 208.926C149.44 211.744 148.044 214.51 145.805 216.775C143.567 219.04 141.038 219.224 138.641 216.775C136.403 214.457 134.928 211.797 134.006 208.926Z" fill="#ED1C24"/>
<path d="M51.752 158.436H133.716L141.855 140L150.52 158.436H232.273" stroke="black" stroke-width="6.68862" stroke-miterlimit="22.926"/>
<path fill-rule="evenodd" clip-rule="evenodd" d="M150.915 175.846C160.686 164.679 171.459 163.81 183.258 175.846C184.285 176.9 186.34 176.215 185.339 174.898C173.013 158.674 159.475 158.252 149.15 174.951C148.202 176.452 149.703 177.242 150.915 175.846Z" fill="black"/>
<path fill-rule="evenodd" clip-rule="evenodd" d="M116.228 142.633C121.127 139.841 129.713 139.341 132.347 145.425C135.297 152.247 135.823 173.976 129.976 182.114C125.209 188.778 111.75 187.303 105.534 183.721C99.266 180.086 95.3153 172.659 99.8718 161.175C103.322 152.378 109.538 146.426 116.228 142.633Z" fill="white"/>
<path d="M116.228 142.633C121.127 139.841 129.713 139.341 132.347 145.425C135.297 152.247 135.823 173.976 129.976 182.114C125.209 188.778 111.75 187.303 105.534 183.721C99.266 180.086 95.3153 172.659 99.8718 161.175C103.322 152.378 109.538 146.426 116.228 142.633Z" stroke="#110F0D" stroke-width="3.82303" stroke-miterlimit="22.926"/>
<path fill-rule="evenodd" clip-rule="evenodd" d="M127.026 158.068C130.003 158.068 132.426 161.729 132.426 166.206C132.426 170.71 130.003 174.371 127.026 174.371C124.024 174.371 121.601 170.71 121.601 166.206C121.601 161.729 124.024 158.068 127.026 158.068Z" fill="black"/>
<path fill-rule="evenodd" clip-rule="evenodd" d="M127.026 159.227C128.765 159.227 130.161 160.622 130.161 162.334C130.161 164.046 128.765 165.442 127.026 165.442C125.288 165.442 123.866 164.046 123.866 162.334C123.866 160.622 125.288 159.227 127.026 159.227Z" fill="white"/>
<path d="M132.031 60.169H151.995C197.059 60.169 233.933 97.0423 233.933 142.081C233.933 187.145 197.059 223.992 151.995 223.992H132.031C86.9661 223.992 50.1191 187.145 50.1191 142.081C50.1191 97.0423 86.9661 60.169 132.031 60.169Z" stroke="black" stroke-width="6.68862" stroke-miterlimit="22.926"/>
</svg>
