<svg width="284" height="284" viewBox="0 0 284 284" fill="none" xmlns="http://www.w3.org/2000/svg">
<path fill-rule="evenodd" clip-rule="evenodd" d="M132.796 74.668H151.259C192.926 74.668 227.007 108.749 227.007 150.416C227.007 192.083 192.926 226.165 151.259 226.165H132.796C91.1291 226.165 57.0476 192.083 57.0476 150.416C57.0476 108.749 91.1291 74.668 132.796 74.668Z" fill="#FBCA8F"/>
<path fill-rule="evenodd" clip-rule="evenodd" d="M132.796 74.5624H151.259C192.926 74.5624 230.616 114.386 227.007 150.311L225.48 165.534H149.889L141.856 148.493L134.35 165.534H58.5751L57.0475 150.311C53.5446 115.544 89.6014 74.5624 132.796 74.5624Z" fill="#341B14"/>
<path d="M58.5752 165.534H134.35L141.856 148.494L149.889 165.534H225.48" stroke="black" stroke-width="6.68862" stroke-miterlimit="22.926"/>
<path d="M132.796 74.6678H151.259C192.926 74.6678 227.007 108.749 227.007 150.416C227.007 192.083 192.926 226.165 151.259 226.165H132.796C91.1291 226.165 57.0476 192.083 57.0476 150.416C57.0476 108.749 91.1291 74.6678 132.796 74.6678Z" stroke="black" stroke-width="6.68862" stroke-miterlimit="22.926"/>
<path fill-rule="evenodd" clip-rule="evenodd" d="M51.3586 77.4072L70.9015 57.8906C81.6738 68.6629 81.6738 86.1514 70.9015 96.9237C60.1028 107.722 42.6143 107.722 31.842 96.9237L51.3586 77.4072Z" fill="#341B14"/>
<path fill-rule="evenodd" clip-rule="evenodd" d="M232.696 77.4072L213.154 57.8906C202.381 68.6629 202.381 86.1514 213.154 96.9237C223.952 107.722 241.441 107.722 252.213 96.9237L232.696 77.4072Z" fill="#341B14"/>
<path d="M51.3586 77.4072L70.9014 57.8907C81.6737 68.6629 81.6737 86.1514 70.9014 96.9237C60.1028 107.722 42.6143 107.722 31.842 96.9237L51.3586 77.4072Z" stroke="black" stroke-width="6.68862" stroke-miterlimit="22.926"/>
<path d="M232.696 77.4072L213.154 57.8907C202.381 68.6629 202.381 86.1514 213.154 96.9237C223.952 107.722 241.441 107.722 252.213 96.9237L232.696 77.4072Z" stroke="black" stroke-width="6.68862" stroke-miterlimit="22.926"/>
<path fill-rule="evenodd" clip-rule="evenodd" d="M100.874 214.84C104.588 212.232 108.539 209.941 113.227 208.439C116.203 207.491 117.388 208.044 118.126 209.493C120.601 214.339 125.711 213.312 132.506 207.202C134.982 205.674 136.773 205.542 138.037 207.123C141.567 211.574 145.86 212.021 151.707 206.043C154.736 202.961 158.291 202.987 159.398 205.305C162.584 210.784 173.12 210.336 183.181 200.854C174.173 205.095 166.693 207.044 163.427 202.408C160.504 198.22 155.315 197.641 151.838 200.722C148.836 203.699 144.042 207.333 142.172 204.067C139.96 200.275 136.72 199.748 131.453 202.355C128.556 203.778 127.95 204.489 125.632 206.464C124.236 207.649 122.919 207.175 122.076 205.648C120.285 202.408 116.256 202.434 111.33 205.305C106.8 207.939 103.508 211.231 100.874 214.84Z" fill="#231F20"/>
<path fill-rule="evenodd" clip-rule="evenodd" d="M162.822 150.337C156.395 146.229 150.811 146.308 147.177 151.444C143.884 156.106 142.541 161.663 142.304 167.615C142.093 173.12 142.726 178.967 146.044 184.656C149.363 190.371 160.451 190.319 167.826 187.237C180.573 181.891 170.986 155.552 162.822 150.337Z" fill="white"/>
<path d="M162.822 150.337C156.395 146.229 150.811 146.308 147.177 151.443C143.884 156.105 142.541 161.663 142.304 167.615C142.093 173.12 142.726 178.967 146.044 184.656C149.363 190.371 160.451 190.319 167.826 187.237C180.573 181.89 170.986 155.552 162.822 150.337Z" stroke="#110F0D" stroke-width="3.82303" stroke-miterlimit="22.926"/>
<path fill-rule="evenodd" clip-rule="evenodd" d="M138.907 150.311C142.462 155.315 143.884 161.32 144.148 167.72C144.385 173.646 143.7 179.915 140.118 186.052C136.562 192.215 124.631 192.136 116.677 188.817C104.799 183.839 110.988 161.873 118.547 152.471C123.499 146.307 133.507 142.699 138.907 150.311Z" fill="white"/>
<path d="M138.907 150.311C142.462 155.315 143.884 161.32 144.148 167.721C144.385 173.647 143.7 179.915 140.118 186.052C136.562 192.215 124.631 192.136 116.677 188.817C104.799 183.839 110.988 161.874 118.547 152.471C123.499 146.308 133.507 142.699 138.907 150.311Z" stroke="#110F0D" stroke-width="3.82303" stroke-miterlimit="22.926"/>
<path fill-rule="evenodd" clip-rule="evenodd" d="M129.741 164.217C133.007 164.217 135.667 166.825 135.667 170.038C135.667 173.251 133.007 175.833 129.741 175.833C126.475 175.833 123.815 173.251 123.815 170.038C123.815 166.825 126.475 164.217 129.741 164.217Z" fill="#110F0D"/>
<path fill-rule="evenodd" clip-rule="evenodd" d="M155.157 167.194C156.685 167.194 157.949 168.405 157.949 169.933C157.949 171.434 156.685 172.672 155.157 172.672C153.603 172.672 152.365 171.434 152.365 169.933C152.365 168.405 153.603 167.194 155.157 167.194Z" fill="#110F0D"/>
<path d="M161.241 141.567C166.482 142.146 170.565 144.569 172.303 150.627" stroke="#110F0D" stroke-width="3.82303" stroke-miterlimit="22.926" stroke-linecap="round"/>
</svg>
