<svg width="284" height="284" viewBox="0 0 284 284" fill="none" xmlns="http://www.w3.org/2000/svg">
<path fill-rule="evenodd" clip-rule="evenodd" d="M132.029 60.1688H152.02C197.084 60.1688 233.931 97.0422 233.931 142.08C233.931 187.145 197.084 223.992 152.02 223.992H132.029C86.9907 223.992 50.1174 187.145 50.1174 142.08C50.1174 97.0422 86.9907 60.1688 132.029 60.1688Z" fill="#FBCA8F"/>
<path d="M132.029 60.169H152.02C197.084 60.169 233.931 97.0423 233.931 142.081C233.931 187.145 197.084 223.992 152.02 223.992H132.029C86.9907 223.992 50.1174 187.145 50.1174 142.081C50.1174 97.0423 86.9907 60.169 132.029 60.169Z" stroke="black" stroke-width="6.68862" stroke-miterlimit="22.926"/>
<path fill-rule="evenodd" clip-rule="evenodd" d="M132.029 60.0634H152.019C197.084 60.0634 237.829 103.126 233.931 141.975L232.298 158.436H150.545L141.853 140L133.741 158.436H51.7766L50.1173 141.975C46.3509 104.364 85.3314 60.0634 132.029 60.0634Z" fill="#341B14"/>
<path d="M114.356 198.945C126.84 211.639 158.604 212.272 171.773 198.945" stroke="#110F0D" stroke-width="3.82303" stroke-miterlimit="22.926" stroke-linecap="round"/>
<path d="M51.7767 158.436H133.741L141.853 140L150.229 158.436H232.298" stroke="black" stroke-width="6.68862" stroke-miterlimit="22.926"/>
<path fill-rule="evenodd" clip-rule="evenodd" d="M121.362 143.108C126.129 140.395 134.478 139.894 137.059 145.82C139.93 152.484 140.431 173.686 134.742 181.614C130.08 188.119 116.963 186.671 110.906 183.168C104.795 179.638 100.95 172.395 105.375 161.175C108.772 152.616 114.804 146.821 121.362 143.108Z" fill="white"/>
<path d="M121.362 143.107C126.129 140.395 134.478 139.894 137.059 145.82C139.93 152.484 140.431 173.686 134.742 181.614C130.08 188.119 116.963 186.671 110.906 183.168C104.795 179.638 100.95 172.395 105.375 161.175C108.772 152.616 114.804 146.821 121.362 143.107Z" stroke="#110F0D" stroke-width="3.82303" stroke-miterlimit="22.926"/>
<path fill-rule="evenodd" clip-rule="evenodd" d="M162.713 143.108C157.919 140.395 149.57 139.894 146.989 145.82C144.118 152.484 143.618 173.686 149.307 181.614C153.968 188.119 167.085 186.671 173.143 183.168C179.253 179.638 183.098 172.395 178.674 161.175C175.276 152.616 169.245 146.821 162.713 143.108Z" fill="white"/>
<path d="M162.713 143.107C157.919 140.395 149.57 139.894 146.989 145.82C144.118 152.484 143.618 173.686 149.307 181.614C153.968 188.119 167.085 186.671 173.143 183.168C179.253 179.638 183.098 172.395 178.674 161.175C175.276 152.616 169.245 146.821 162.713 143.107Z" stroke="#110F0D" stroke-width="3.82303" stroke-miterlimit="22.926"/>
<path fill-rule="evenodd" clip-rule="evenodd" d="M131.871 157.962C134.847 157.962 137.27 161.597 137.27 166.101C137.27 170.604 134.847 174.265 131.871 174.265C128.895 174.265 126.472 170.604 126.472 166.101C126.472 161.597 128.895 157.962 131.871 157.962Z" fill="black"/>
<path fill-rule="evenodd" clip-rule="evenodd" d="M131.871 159.121C133.609 159.121 135.005 160.491 135.005 162.229C135.005 163.941 133.609 165.337 131.871 165.337C130.133 165.337 128.71 163.941 128.71 162.229C128.71 160.491 130.133 159.121 131.871 159.121Z" fill="white"/>
<path fill-rule="evenodd" clip-rule="evenodd" d="M152.072 157.962C155.048 157.962 157.472 161.597 157.472 166.101C157.472 170.604 155.048 174.265 152.072 174.265C149.07 174.265 146.647 170.604 146.647 166.101C146.647 161.597 149.07 157.962 152.072 157.962Z" fill="black"/>
<path fill-rule="evenodd" clip-rule="evenodd" d="M152.072 159.121C153.811 159.121 155.206 160.491 155.206 162.229C155.206 163.941 153.811 165.337 152.072 165.337C150.334 165.337 148.912 163.941 148.912 162.229C148.912 160.491 150.334 159.121 152.072 159.121Z" fill="white"/>
</svg>
