<svg width="284" height="284" viewBox="0 0 284 284" fill="none" xmlns="http://www.w3.org/2000/svg">
<path fill-rule="evenodd" clip-rule="evenodd" d="M132.915 71.1517H152.484C196.653 71.1517 232.762 107.288 232.762 151.43C232.762 195.599 196.653 231.709 152.484 231.709H132.915C88.7718 231.709 52.6359 195.599 52.6359 151.43C52.6359 107.288 88.7718 71.1517 132.915 71.1517Z" fill="#FBCA8F"/>
<path fill-rule="evenodd" clip-rule="evenodd" d="M132.915 71.0464H152.484C196.653 71.0464 236.581 113.24 232.762 151.325L231.156 167.47H151.035L142.528 149.402L134.574 167.47H54.2426L52.636 151.325C48.9486 114.478 87.1389 71.0464 132.915 71.0464Z" fill="#341B14"/>
<path d="M54.2426 167.47H134.574L142.528 149.402L151.035 167.47H231.156" stroke="black" stroke-width="6.68862" stroke-miterlimit="22.926"/>
<path d="M132.915 69.5978H152.484C196.653 69.5978 232.762 105.734 232.762 149.876C232.762 194.019 196.653 230.155 152.484 230.155H132.915C88.7718 230.155 52.6359 194.019 52.6359 149.876C52.6359 105.734 88.7718 69.5978 132.915 69.5978Z" stroke="black" stroke-width="6.68862" stroke-miterlimit="22.926"/>
<path fill-rule="evenodd" clip-rule="evenodd" d="M238.794 74.049L218.092 53.3473C206.661 64.778 206.661 83.3201 218.092 94.7508C229.523 106.182 248.065 106.182 259.495 94.7508L238.794 74.049Z" fill="#341B14" stroke="black" stroke-width="6.68862" stroke-miterlimit="22.926"/>
<path fill-rule="evenodd" clip-rule="evenodd" d="M157.62 117.691C164.073 114.188 167.707 100.229 175.977 101.019C183.8 101.757 187.566 114.847 190.648 125.198C191.016 126.357 189.989 126.594 189.568 125.514C186.197 117.323 180.982 105.971 175.661 105.233C169.103 104.338 168.076 115.821 158.041 118.877C156.698 119.272 156.645 118.192 157.62 117.691Z" fill="black"/>
<path fill-rule="evenodd" clip-rule="evenodd" d="M146.426 134.047C146.426 133.362 147.427 133.283 147.585 134.126C148.27 138.946 146.9 141.949 144.187 143.713C143.45 144.135 143.055 143.529 143.318 142.95C144.951 139.894 146.084 136.918 146.426 134.047Z" fill="black"/>
<path fill-rule="evenodd" clip-rule="evenodd" d="M100.097 140.658C108.683 133.178 121.931 133.547 142.238 145.926C142.949 146.374 142.502 147.322 141.343 146.742C137.366 145.136 133.204 143.661 128.885 142.317C134.047 150.114 137.445 160.965 138.999 175.082C139.815 175.135 140.579 175.266 141.343 175.451C142.344 175.661 142.291 176.768 141.29 176.61C140.632 176.478 139.973 176.425 139.288 176.478C140.447 186.908 131.756 196.6 117.954 195.283C106.497 194.177 100.15 188.067 99.7548 177.584C97.042 177.716 94.3291 178.006 91.6163 178.348C90.1414 178.664 90.0624 177.347 91.59 176.899C94.1974 176.136 96.9103 175.609 99.7021 175.398C101.994 160.333 106.208 147.506 114.82 139.842C108.841 139.473 104.259 140.158 100.756 141.712C99.7548 142.001 99.5177 141.29 100.097 140.658Z" fill="#231F20"/>
<path d="M100.097 140.658C108.683 133.178 121.931 133.546 142.238 145.925C142.949 146.373 142.502 147.321 141.343 146.742C137.366 145.135 133.204 143.66 128.885 142.317C134.047 150.113 137.445 160.964 138.999 175.082C139.815 175.134 140.579 175.266 141.343 175.45C142.344 175.661 142.291 176.767 141.29 176.609C140.632 176.478 139.973 176.425 139.288 176.478C140.447 186.907 131.756 196.6 117.954 195.283C106.497 194.177 100.15 188.066 99.7548 177.584C97.042 177.715 94.3291 178.005 91.6163 178.348C90.1414 178.664 90.0624 177.347 91.59 176.899C94.1974 176.135 96.9103 175.608 99.7021 175.398C101.994 160.332 106.208 147.506 114.82 139.841C108.841 139.473 104.259 140.157 100.756 141.711C99.7548 142.001 99.5177 141.29 100.097 140.658Z" stroke="#110F0D" stroke-width="3.82303" stroke-miterlimit="22.926"/>
<path fill-rule="evenodd" clip-rule="evenodd" d="M132.388 218.487C148.27 209.953 162.387 203.58 167.207 209.058C167.918 209.4 168.313 209.005 167.997 208.215C163.177 202.895 150.324 206.898 131.861 217.407C131.229 217.855 131.519 218.803 132.388 218.487Z" fill="#231F20"/>
<path fill-rule="evenodd" clip-rule="evenodd" d="M144.872 221.964C144.503 222.544 145.109 223.149 145.741 222.517C149.191 217.961 152.668 215.064 153.853 216.986C154.38 217.592 155.276 217.118 154.854 216.381C152.958 213.773 149.824 215.09 144.872 221.964Z" fill="#231F20"/>
<path fill-rule="evenodd" clip-rule="evenodd" d="M116.242 139.921C120.114 140.263 123.854 140.895 127.383 141.975C132.651 149.613 136.128 160.57 137.813 174.977C125.724 173.028 113.451 172.949 100.966 175.214C103.152 159.516 107.999 147.401 116.242 139.921Z" fill="#FBCA8F"/>
<path fill-rule="evenodd" clip-rule="evenodd" d="M101.177 177.242C108.236 176.557 115.11 176.162 121.773 176.109C121.299 184.643 134.126 185.881 138.367 179.454C136.865 187.566 130.992 194.177 119.034 194.098C109.079 194.019 100.993 187.461 101.177 177.242Z" fill="white"/>
<path fill-rule="evenodd" clip-rule="evenodd" d="M128.305 176.004C128.779 176.294 129.043 176.689 129.043 177.084C129.043 177.953 127.752 178.664 126.172 178.664C124.592 178.664 123.301 177.953 123.301 177.084C123.301 176.715 123.538 176.346 123.933 176.057L128.305 176.004Z" fill="white"/>
<path fill-rule="evenodd" clip-rule="evenodd" d="M147.638 180.112C145.715 180.665 145.399 179.269 147.032 178.901C146.689 158.884 157.804 128.674 170.209 132.282C172.817 133.415 168.761 133.362 168.287 133.362C174.344 134.732 182.457 149.981 187.408 175.055C189.7 175.398 191.938 175.872 194.098 176.636C195.441 177.11 195.02 178.295 193.782 178.19C191.833 177.9 189.858 177.768 187.856 177.847C187.356 181.429 185.828 184.405 183.326 186.802C185.459 186.618 187.118 186.855 188.04 187.777L187.382 188.567C182.799 186.723 175.609 189.173 166.443 194.888L166.074 193.729L168.076 192.386C156.882 192.043 150.192 187.856 147.638 180.112Z" fill="#231F20"/>
<path d="M147.638 180.113C145.715 180.666 145.399 179.27 147.032 178.901C146.689 158.884 157.804 128.674 170.209 132.282C172.817 133.415 168.761 133.362 168.287 133.362C174.344 134.732 182.457 149.982 187.408 175.056C189.7 175.398 191.938 175.872 194.098 176.636C195.441 177.11 195.02 178.295 193.782 178.19C191.833 177.9 189.858 177.768 187.856 177.847C187.356 181.429 185.828 184.406 183.326 186.802C185.459 186.618 187.118 186.855 188.04 187.777L187.382 188.567C182.799 186.723 175.609 189.173 166.443 194.888L166.074 193.729L168.076 192.386C156.882 192.044 150.192 187.856 147.638 180.113Z" stroke="#110F0D" stroke-width="3.82303" stroke-miterlimit="22.926"/>
<path fill-rule="evenodd" clip-rule="evenodd" d="M148.243 178.532C159.7 174.344 171.948 172.395 185.617 174.687C185.196 164.31 176.425 142.633 170.657 136.47C168.524 134.205 165.943 133.046 163.414 135.548C153.985 144.819 148.796 160.622 148.243 178.532Z" fill="#FBCA8F"/>
<path fill-rule="evenodd" clip-rule="evenodd" d="M176.899 176.741C177.373 177.057 177.637 177.426 177.637 177.821C177.637 178.717 176.346 179.428 174.766 179.428C173.159 179.428 171.895 178.717 171.895 177.821C171.895 177.452 172.106 177.084 172.527 176.82L176.899 176.741Z" fill="white"/>
<path fill-rule="evenodd" clip-rule="evenodd" d="M148.691 179.823C156.013 177.716 163.361 177.189 169.683 176.899C170.025 183.431 179.849 187.197 186.118 180.191C185.459 182.746 183.773 185.011 180.982 186.987C178.032 187.75 174.608 189.146 170.789 191.043C160.754 191.675 151.667 188.383 148.691 179.823Z" fill="white"/>
<path fill-rule="evenodd" clip-rule="evenodd" d="M45.867 73.6539L67.1746 52.3464C78.9214 64.1195 78.9214 83.2146 67.1746 94.9878C55.4014 106.735 36.3063 106.735 24.5595 94.9878L31.9869 87.5341L45.5246 92.9597L40.6521 78.8688L45.867 73.6539Z" fill="#341B14" stroke="#231F20" stroke-width="6.68862" stroke-miterlimit="22.926"/>
<path d="M131.685 218.487C147.567 209.953 161.684 203.579 166.504 209.058C167.215 209.4 167.61 209.005 167.294 208.215C162.474 202.895 149.621 206.898 131.158 217.407C130.526 217.855 130.816 218.803 131.685 218.487Z" stroke="#231F20" stroke-width="3.82303" stroke-miterlimit="22.926"/>
<path d="M144.169 221.962C143.8 222.541 144.406 223.147 145.038 222.515C148.489 217.958 151.965 215.061 153.151 216.984C153.677 217.59 154.573 217.115 154.151 216.378C152.255 213.77 149.121 215.087 144.169 221.962Z" stroke="#231F20" stroke-width="3.82303" stroke-miterlimit="22.926"/>
</svg>
