<svg width="284" height="284" viewBox="0 0 284 284" fill="none" xmlns="http://www.w3.org/2000/svg">
<path fill-rule="evenodd" clip-rule="evenodd" d="M129.795 61.2485H149.786C194.824 61.2485 231.697 98.0956 231.697 143.16C231.697 188.198 194.824 225.072 149.786 225.072H129.795C84.7308 225.072 47.8838 188.198 47.8838 143.16C47.8838 98.0956 84.7308 61.2485 129.795 61.2485Z" fill="#FBCA8F"/>
<path fill-rule="evenodd" clip-rule="evenodd" d="M129.795 61.1169H149.786C194.824 61.1169 235.595 104.18 231.697 143.055L230.038 159.49H148.285L139.619 141.079L131.507 159.49H49.543L47.8837 143.055C44.1173 105.444 83.0977 61.1169 129.795 61.1169Z" fill="#341B14"/>
<path d="M112.122 209.769C124.607 197.048 156.37 196.442 169.54 209.769" stroke="#110F0D" stroke-width="3.82303" stroke-miterlimit="22.926" stroke-linecap="round"/>
<path d="M49.5431 159.49H131.507L139.619 141.08L147.995 159.49H230.038" stroke="black" stroke-width="6.68862" stroke-miterlimit="22.926"/>
<path fill-rule="evenodd" clip-rule="evenodd" d="M174.465 154.486C167.485 152.537 160.795 149.482 154.29 143.398C152.077 141.317 149.18 141.58 147.784 143.872C143.676 150.588 142.095 158.2 142.49 165.68C142.754 171.395 143.86 177.058 147.863 182.167C151.498 186.776 156.476 187.461 161.586 187.277C166.405 187.092 171.357 186.329 175.413 182.589C179.364 178.928 179.469 171.132 178.969 161.307C178.811 158.015 177.704 155.381 174.465 154.486Z" fill="white"/>
<path d="M174.465 154.485C167.485 152.536 160.795 149.481 154.29 143.397C152.077 141.316 149.18 141.58 147.784 143.871C143.676 150.587 142.095 158.199 142.49 165.679C142.754 171.395 143.86 177.057 147.863 182.167C151.498 186.776 156.476 187.461 161.586 187.276C166.405 187.092 171.357 186.328 175.413 182.588C179.364 178.927 179.469 171.131 178.969 161.307C178.811 158.015 177.704 155.381 174.465 154.485Z" stroke="#110F0D" stroke-width="3.82303" stroke-miterlimit="22.926"/>
<path fill-rule="evenodd" clip-rule="evenodd" d="M151.603 169.34C148.601 169.34 146.204 173.001 146.204 177.505C146.204 182.009 148.601 185.643 151.603 185.643C154.579 185.643 157.003 182.009 157.003 177.505C157.003 173.001 154.579 169.34 151.603 169.34Z" fill="black"/>
<path fill-rule="evenodd" clip-rule="evenodd" d="M151.603 170.499C149.865 170.499 148.443 171.895 148.443 173.607C148.443 175.345 149.865 176.741 151.603 176.741C153.342 176.741 154.738 175.345 154.738 173.607C154.738 171.895 153.342 170.499 151.603 170.499Z" fill="white"/>
<path fill-rule="evenodd" clip-rule="evenodd" d="M105.196 154.486C112.175 152.537 118.865 149.482 125.371 143.398C127.583 141.317 130.48 141.58 131.876 143.872C135.985 150.588 137.565 158.2 137.196 165.68C136.907 171.395 135.8 177.058 131.797 182.167C128.189 186.776 123.211 187.461 118.075 187.277C113.255 187.092 108.303 186.329 104.247 182.589C100.297 178.928 100.191 171.132 100.692 161.307C100.85 158.015 101.982 155.381 105.196 154.486Z" fill="white"/>
<path d="M105.196 154.485C112.175 152.536 118.865 149.481 125.371 143.397C127.583 141.316 130.48 141.58 131.876 143.871C135.985 150.587 137.565 158.199 137.196 165.679C136.907 171.395 135.8 177.057 131.797 182.167C128.189 186.776 123.211 187.461 118.075 187.276C113.255 187.092 108.303 186.328 104.247 182.588C100.297 178.927 100.191 171.131 100.692 161.307C100.85 158.015 101.982 155.381 105.196 154.485Z" stroke="#110F0D" stroke-width="3.82303" stroke-miterlimit="22.926"/>
<path fill-rule="evenodd" clip-rule="evenodd" d="M128.083 169.34C131.06 169.34 133.483 173.001 133.483 177.505C133.483 182.009 131.06 185.643 128.083 185.643C125.081 185.643 122.658 182.009 122.658 177.505C122.658 173.001 125.081 169.34 128.083 169.34Z" fill="black"/>
<path fill-rule="evenodd" clip-rule="evenodd" d="M128.083 170.499C129.822 170.499 131.218 171.895 131.218 173.607C131.218 175.345 129.822 176.741 128.083 176.741C126.345 176.741 124.923 175.345 124.923 173.607C124.923 171.895 126.345 170.499 128.083 170.499Z" fill="white"/>
<path d="M129.795 61.2486H149.786C194.824 61.2486 231.697 98.0956 231.697 143.16C231.697 188.198 194.824 225.072 149.786 225.072H129.795C84.7571 225.072 47.8838 188.198 47.8838 143.16C47.8838 98.0956 84.7571 61.2486 129.795 61.2486Z" stroke="black" stroke-width="6.68862" stroke-miterlimit="22.926"/>
<path d="M94.792 151.615C106.433 150.219 116.916 144.53 126.266 134.679" stroke="#110F0D" stroke-width="3.82303" stroke-miterlimit="22.926" stroke-linecap="round"/>
<path d="M184.763 151.615C173.148 150.219 162.665 144.53 153.315 134.679" stroke="#110F0D" stroke-width="3.82303" stroke-miterlimit="22.926" stroke-linecap="round"/>
</svg>
