<svg width="284" height="284" viewBox="0 0 284 284" fill="none" xmlns="http://www.w3.org/2000/svg">
<path fill-rule="evenodd" clip-rule="evenodd" d="M132.029 60.1688H151.993C197.058 60.1688 233.931 97.0422 233.931 142.08C233.931 187.145 197.058 223.992 151.993 223.992H132.029C86.9645 223.992 50.1175 187.145 50.1175 142.08C50.1175 97.0422 86.9645 60.1688 132.029 60.1688Z" fill="#FBCA8F"/>
<path fill-rule="evenodd" clip-rule="evenodd" d="M132.029 60.0634H151.993C197.058 60.0634 237.829 103.126 233.931 141.975L232.272 158.436H175.777L167.085 140L158.973 158.436H51.7503L50.1174 141.975C46.351 104.364 85.3314 60.0634 132.029 60.0634Z" fill="#341B14"/>
<path d="M51.7768 159.964H158.973L167.085 141.527L175.777 159.964H232.272" stroke="black" stroke-width="6.68862" stroke-miterlimit="22.926"/>
<path fill-rule="evenodd" clip-rule="evenodd" d="M91.3103 147.111L138.456 167.444C120.44 190.437 82.487 175.688 91.3103 147.111Z" fill="#110F0D"/>
<path fill-rule="evenodd" clip-rule="evenodd" d="M93.2593 150.35L96.0775 151.773C88.6238 166.074 103.953 174.318 106.692 156.198L134.215 167.918C118.886 186.091 86.6484 173.159 93.2593 150.35Z" fill="white"/>
<path fill-rule="evenodd" clip-rule="evenodd" d="M97.5524 152.036L104.795 155.407C102.267 158.91 96.1565 156.83 97.5524 152.036Z" fill="white"/>
<path fill-rule="evenodd" clip-rule="evenodd" d="M154.68 172.132L194.371 189.226C179.201 208.584 147.226 196.179 154.68 172.132Z" fill="#110F0D"/>
<path fill-rule="evenodd" clip-rule="evenodd" d="M156.313 174.845L158.683 176.03C152.415 188.093 165.32 195.046 167.612 179.77L190.789 189.621C177.884 204.923 150.755 194.072 156.313 174.845Z" fill="white"/>
<path fill-rule="evenodd" clip-rule="evenodd" d="M159.921 176.267L166.005 179.112C163.898 182.062 158.762 180.297 159.921 176.267Z" fill="white"/>
<path d="M100.186 190.463C96.4726 197.891 110.168 206.108 129.922 214.615" stroke="black" stroke-width="3.82303" stroke-miterlimit="22.926" stroke-linecap="round"/>
<path d="M132.029 60.169H151.993C197.058 60.169 233.931 97.0424 233.931 142.081C233.931 187.145 197.058 223.992 151.993 223.992H132.029C86.9645 223.992 50.1175 187.145 50.1175 142.081C50.1175 97.0424 86.9645 60.169 132.029 60.169Z" stroke="black" stroke-width="6.68862" stroke-miterlimit="22.926"/>
</svg>
