<svg width="284" height="284" viewBox="0 0 284 284" fill="none" xmlns="http://www.w3.org/2000/svg">
<path fill-rule="evenodd" clip-rule="evenodd" d="M132.243 70.6511H151.812C195.955 70.6511 232.091 106.787 232.091 150.93C232.091 195.099 195.955 231.208 151.812 231.208H132.243C88.0739 231.208 51.9644 195.099 51.9644 150.93C51.9644 106.787 88.0739 70.6511 132.243 70.6511Z" fill="#FBCA8F"/>
<path fill-rule="evenodd" clip-rule="evenodd" d="M132.243 70.546H151.812C195.955 70.546 235.91 112.74 232.091 150.825L230.484 166.944H150.364L141.856 148.902L133.902 166.944H53.571L51.9643 150.825C48.277 113.951 86.4673 70.546 132.243 70.546Z" fill="#341B14"/>
<path d="M53.571 168.445H133.902L141.856 150.377L150.364 168.445H230.484" stroke="black" stroke-width="6.68862" stroke-miterlimit="22.926"/>
<path d="M128.292 211.534C128.292 219.119 134.455 225.282 142.014 225.282C149.6 225.282 155.763 219.119 155.763 211.534" stroke="#110F0D" stroke-width="3.82303" stroke-miterlimit="22.926" stroke-linecap="round" stroke-linejoin="round"/>
<path fill-rule="evenodd" clip-rule="evenodd" d="M85.9405 177.637C118.6 166.97 125.737 177.294 141.488 177.4C160.293 175.925 169.037 167.733 198.115 177.637V182.509C196.692 185.064 194.401 182.272 192.689 192.228C190.213 206.371 181.917 212.087 172.962 212.456C162.11 212.877 150.364 205.186 147.019 192.123C146.703 182.219 137.932 180.086 136.826 192.123C132.296 206.872 120.707 213.377 110.303 212.377C99.0832 211.323 93.3415 204.422 91.0765 192.017C88.6007 180.665 87.6525 185.801 85.9405 182.694V177.637Z" fill="#110F0D"/>
<path d="M132.243 70.6511H151.812C195.955 70.6511 232.091 106.787 232.091 150.93C232.091 195.099 195.955 231.208 151.812 231.208H132.243C88.0739 231.208 51.9644 195.099 51.9644 150.93C51.9644 106.787 88.0739 70.6511 132.243 70.6511Z" stroke="black" stroke-width="6.68862" stroke-miterlimit="22.926"/>
<path fill-rule="evenodd" clip-rule="evenodd" d="M45.9329 73.5486L66.6347 52.8468C78.0654 64.2775 78.0654 82.8196 66.6347 94.2503C55.2039 105.681 36.6882 105.681 25.2312 94.2503L45.9329 73.5486Z" fill="#341B14"/>
<path fill-rule="evenodd" clip-rule="evenodd" d="M238.122 73.5486L217.42 52.8468C205.99 64.2775 205.99 82.8196 217.42 94.2503C228.851 105.681 247.393 105.681 258.824 94.2503L238.122 73.5486Z" fill="#341B14"/>
<path d="M45.9329 73.5484L66.6347 52.8467C78.0654 64.2774 78.0654 82.8194 66.6347 94.2502C55.2039 105.681 36.6883 105.681 25.2312 94.2502L45.9329 73.5484Z" stroke="black" stroke-width="6.68862" stroke-miterlimit="22.926"/>
<path d="M238.122 73.5484L217.42 52.8467C205.99 64.2774 205.99 82.8194 217.42 94.2502C228.851 105.681 247.393 105.681 258.824 94.2502L238.122 73.5484Z" stroke="black" stroke-width="6.68862" stroke-miterlimit="22.926"/>
</svg>
