<svg width="284" height="284" viewBox="0 0 284 284" fill="none" xmlns="http://www.w3.org/2000/svg">
<path fill-rule="evenodd" clip-rule="evenodd" d="M132.029 60.1555H152.019C197.058 60.1555 233.931 97.0289 233.931 142.067C233.931 187.132 197.058 224.005 152.019 224.005H132.029C86.9643 224.005 50.1173 187.132 50.1173 142.067C50.1173 97.0289 86.9643 60.1555 132.029 60.1555Z" fill="#FBCA8F"/>
<path fill-rule="evenodd" clip-rule="evenodd" d="M132.029 60.0504H152.02C197.058 60.0504 237.829 103.113 233.931 141.962L232.272 158.423H150.518L141.853 139.987L133.741 158.423H51.7767L50.1174 141.962C46.351 104.351 85.3314 60.0504 132.029 60.0504Z" fill="#341B14"/>
<path d="M51.7766 158.423H133.741L141.853 139.987L150.228 158.423H232.272" stroke="black" stroke-width="6.68862" stroke-miterlimit="22.926"/>
<path d="M132.029 60.1556H152.019C197.058 60.1556 233.931 97.029 233.931 142.067C233.931 187.132 197.058 224.005 152.019 224.005H132.029C86.9643 224.005 50.1173 187.132 50.1173 142.067C50.1173 97.029 86.9643 60.1556 132.029 60.1556Z" stroke="black" stroke-width="6.68862" stroke-miterlimit="22.926"/>
<path fill-rule="evenodd" clip-rule="evenodd" d="M90.4673 160.029C108.166 165.481 127.077 169.037 148.148 169.406C148.859 168.352 149.517 167.325 150.044 166.272C151.256 164.375 153.784 165.271 152.994 167.641C151.782 170.012 150.255 172.329 148.411 174.594C146.778 176.043 144.697 174.779 145.224 172.882L142.906 172.566C145.935 179.546 145.698 186.262 142.564 192.715C132.24 192.926 121.915 194.954 111.59 200.221C97.1835 195.981 94.2599 177.781 109.352 168.379C102.741 167.009 96.13 165.323 89.5718 163.058C87.1223 162.453 87.4911 159.292 90.4673 160.029Z" fill="#110F0D"/>
<path fill-rule="evenodd" clip-rule="evenodd" d="M111.906 169.722C121.072 170.223 130.58 171.145 140.431 172.541C144.197 179.151 143.907 185.209 140.957 190.898C131.765 191.241 122.731 192.531 114.698 196.508C111.827 197.931 110.537 197.43 107.508 195.771C99.4221 191.346 98.9743 176.649 111.906 169.722Z" fill="white"/>
<path fill-rule="evenodd" clip-rule="evenodd" d="M152.309 173.647C151.256 174.832 153.31 176.07 154.548 174.595C157.524 171.013 159.499 166.93 158.999 161.689C158.867 160.425 156.945 160.398 156.945 161.715C156.971 167.115 155.022 170.565 152.309 173.647Z" fill="#110F0D"/>
<path fill-rule="evenodd" clip-rule="evenodd" d="M163.977 158.502C164.504 163.98 165.663 166.798 167.664 166.061C169.613 163.717 171.562 163.848 173.511 165.85C181.702 167.615 189.92 163.638 198.216 151.522C199.876 149.441 202.431 150.363 201.509 152.76C200.007 155.236 198.19 157.185 196.162 159.634C207.593 164.533 208.251 175.99 198.559 183.312C188.34 182.548 178.911 183.892 170.825 188.58C164.899 183.418 163.977 176.859 167.533 169.037C163.819 168.879 161.132 166.298 160.737 158.344C160.895 155.921 163.74 156.052 163.977 158.502Z" fill="#110F0D"/>
<path fill-rule="evenodd" clip-rule="evenodd" d="M169.824 169.195C180.307 170.301 188.34 167.352 194.424 161.399C204.327 164.849 205.618 173.436 198.375 181.258C188.656 180.363 179.622 181.811 171.273 185.815C167.401 182.707 166.584 177.255 169.824 169.195Z" fill="white"/>
<path fill-rule="evenodd" clip-rule="evenodd" d="M93.5489 212.048C92.1003 213.181 93.2591 214.682 95.3662 212.996C96.7358 211.864 98.2634 210.942 99.9754 210.283C98.7901 211.469 100.002 212.575 101.345 211.442C104.347 208.519 108.509 205.832 111.669 205.068C110.037 205.621 108.851 206.464 108.219 207.676C107.561 208.993 108.878 209.546 110.037 208.65C111.643 207.36 113.25 206.464 114.856 206.175C114.172 207.676 115.357 208.361 116.99 207.36C120.703 205.174 124.786 203.857 130.212 203.778C131.607 203.751 131.028 202.145 130.212 202.04C129.237 201.908 128.289 201.855 127.341 202.277C127.42 201.355 127.025 200.854 125.997 200.907C123.627 201.039 121.283 201.539 118.912 202.514C118.912 201.328 118.122 201.039 116.884 201.355C115.33 201.75 113.75 202.25 112.117 203.014C111.828 201.802 110.774 201.908 108.878 202.724C103.557 204.989 98.5004 208.176 93.5489 212.048Z" fill="#110F0D"/>
<path fill-rule="evenodd" clip-rule="evenodd" d="M178.805 195.533C177.436 196.613 178.542 198.035 180.517 196.429C181.834 195.375 183.283 194.506 184.889 193.874C183.783 195.007 184.942 196.06 186.206 194.98C189.051 192.215 192.975 189.66 195.978 188.949C194.424 189.476 193.291 190.266 192.712 191.398C192.08 192.662 193.344 193.189 194.424 192.32C195.951 191.109 197.479 190.266 199.007 189.976C198.348 191.425 199.454 192.057 201.008 191.109C204.538 189.028 208.409 187.79 213.545 187.711C214.862 187.685 214.335 186.157 213.545 186.052C212.623 185.946 211.728 185.894 210.832 186.289C210.885 185.42 210.516 184.945 209.542 184.998C207.303 185.13 205.064 185.578 202.826 186.526C202.826 185.393 202.088 185.13 200.903 185.42C199.454 185.788 197.927 186.289 196.426 187C196.136 185.841 195.135 185.946 193.344 186.71C188.287 188.87 183.493 191.872 178.805 195.533Z" fill="#110F0D"/>
<path fill-rule="evenodd" clip-rule="evenodd" d="M134.873 172.725C138.218 172.725 140.957 176.833 140.957 181.89C140.957 186.947 138.218 191.082 134.873 191.082C131.502 191.082 128.789 186.947 128.789 181.89C128.789 176.833 131.502 172.725 134.873 172.725Z" fill="black"/>
<path fill-rule="evenodd" clip-rule="evenodd" d="M134.873 174.015C136.822 174.015 138.403 175.596 138.403 177.518C138.403 179.467 136.822 181.021 134.873 181.021C132.898 181.021 131.318 179.467 131.318 177.518C131.318 175.596 132.898 174.015 134.873 174.015Z" fill="white"/>
<path fill-rule="evenodd" clip-rule="evenodd" d="M176.646 168.247C173.617 168.247 171.167 171.935 171.167 176.491C171.167 181.048 173.617 184.735 176.646 184.735C179.648 184.735 182.098 181.048 182.098 176.491C182.098 171.935 179.648 168.247 176.646 168.247Z" fill="black"/>
<path fill-rule="evenodd" clip-rule="evenodd" d="M176.646 169.432C174.881 169.432 173.459 170.828 173.459 172.567C173.459 174.305 174.881 175.701 176.646 175.701C178.41 175.701 179.832 174.305 179.832 172.567C179.832 170.828 178.41 169.432 176.646 169.432Z" fill="white"/>
<path d="M148.964 211.839C155.549 199.907 161.291 196.694 166.031 204.411" stroke="#231F20" stroke-width="3.82303" stroke-miterlimit="22.926" stroke-linecap="round"/>
</svg>
