<svg width="284" height="284" viewBox="0 0 284 284" fill="none" xmlns="http://www.w3.org/2000/svg">
<path fill-rule="evenodd" clip-rule="evenodd" d="M132.23 70.6512H151.799C195.968 70.6512 232.078 106.761 232.078 150.93C232.078 195.072 195.968 231.208 151.799 231.208H132.23C88.0871 231.208 51.9512 195.072 51.9512 150.93C51.9512 106.761 88.0871 70.6512 132.23 70.6512Z" fill="#FBCA8F"/>
<path fill-rule="evenodd" clip-rule="evenodd" d="M132.23 70.5197H151.799C195.968 70.5197 235.897 112.74 232.078 150.798L230.471 166.943H150.35L141.87 148.876L133.889 166.943H53.5842L51.9512 150.798C48.2639 113.951 86.4805 70.5197 132.23 70.5197Z" fill="#341B14"/>
<path d="M132.23 70.6511H151.799C195.968 70.6511 232.078 106.761 232.078 150.93C232.078 195.072 195.968 231.208 151.799 231.208H132.23C88.0871 231.208 51.9512 195.072 51.9512 150.93C51.9512 106.761 88.0871 70.6511 132.23 70.6511Z" stroke="black" stroke-width="6.68862" stroke-miterlimit="22.926"/>
<path d="M53.5841 166.943H133.889L141.869 148.875L150.35 166.943H230.471" stroke="black" stroke-width="6.68862" stroke-miterlimit="22.926"/>
<path fill-rule="evenodd" clip-rule="evenodd" d="M163.888 148.059C159.095 145.346 150.693 144.846 148.112 150.824C145.241 157.488 144.714 178.795 150.429 186.776C155.118 193.308 168.313 191.859 174.397 188.33C180.534 184.8 184.406 177.505 179.954 166.258C176.53 157.62 170.473 151.799 163.888 148.059Z" fill="white"/>
<path d="M163.888 148.059C159.095 145.346 150.693 144.846 148.112 150.825C145.241 157.488 144.714 178.796 150.429 186.776C155.118 193.308 168.313 191.859 174.397 188.33C180.534 184.801 184.406 177.505 179.954 166.259C176.53 157.62 170.473 151.799 163.888 148.059Z" stroke="#110F0D" stroke-width="3.82303" stroke-miterlimit="22.926"/>
<path fill-rule="evenodd" clip-rule="evenodd" d="M120.14 148.059C124.934 145.346 133.336 144.846 135.917 150.824C138.788 157.488 139.315 178.795 133.599 186.776C128.911 193.308 115.716 191.859 109.632 188.33C103.495 184.8 99.6231 177.505 104.074 166.258C107.498 157.62 113.556 151.799 120.14 148.059Z" fill="white"/>
<path d="M120.14 148.059C124.934 145.346 133.336 144.846 135.917 150.825C138.788 157.488 139.315 178.796 133.599 186.776C128.911 193.308 115.716 191.859 109.632 188.33C103.495 184.801 99.6231 177.505 104.074 166.259C107.498 157.62 113.556 151.799 120.14 148.059Z" stroke="#110F0D" stroke-width="3.82303" stroke-miterlimit="22.926"/>
<path d="M128.463 213.509C134.363 219.514 149.35 219.804 155.565 213.509" stroke="#110F0D" stroke-width="3.82303" stroke-miterlimit="22.926" stroke-linecap="round"/>
<path fill-rule="evenodd" clip-rule="evenodd" d="M158.752 149.719C153.3 149.719 148.902 156.356 148.902 164.573C148.902 172.764 153.3 179.428 158.752 179.428C164.178 179.428 168.603 172.764 168.603 164.573C168.603 156.356 164.178 149.719 158.752 149.719Z" fill="black"/>
<path fill-rule="evenodd" clip-rule="evenodd" d="M158.752 151.667C154.88 151.667 151.72 154.775 151.72 158.621C151.72 162.44 154.88 165.548 158.752 165.548C162.624 165.548 165.758 162.44 165.758 158.621C165.758 154.775 162.624 151.667 158.752 151.667Z" fill="white"/>
<path fill-rule="evenodd" clip-rule="evenodd" d="M161.834 167.602C160.306 167.602 159.068 168.84 159.068 170.341C159.068 171.869 160.306 173.08 161.834 173.08C163.361 173.08 164.626 171.869 164.626 170.341C164.626 168.84 163.361 167.602 161.834 167.602Z" fill="white"/>
<path fill-rule="evenodd" clip-rule="evenodd" d="M125.013 149.719C130.465 149.719 134.864 156.356 134.864 164.573C134.864 172.764 130.465 179.428 125.013 179.428C119.561 179.428 115.163 172.764 115.163 164.573C115.163 156.356 119.561 149.719 125.013 149.719Z" fill="black"/>
<path fill-rule="evenodd" clip-rule="evenodd" d="M125.013 151.667C128.885 151.667 132.019 154.775 132.019 158.621C132.019 162.44 128.885 165.548 125.013 165.548C121.141 165.548 118.007 162.44 118.007 158.621C118.007 154.775 121.141 151.667 125.013 151.667Z" fill="white"/>
<path fill-rule="evenodd" clip-rule="evenodd" d="M121.932 167.602C123.459 167.602 124.697 168.84 124.697 170.341C124.697 171.869 123.459 173.08 121.932 173.08C120.378 173.08 119.14 171.869 119.14 170.341C119.14 168.84 120.378 167.602 121.932 167.602Z" fill="white"/>
<path d="M89.0352 196.995L99.7285 190.49L89.1142 202.473L104.917 192.096L96.1465 205.028L108.42 196.468L106.208 205.081L115.215 199.023L113.582 205.423L119.245 200.419L121.141 204.159" stroke="#ED1F23" stroke-width="3.82303" stroke-miterlimit="22.926" stroke-linecap="round" stroke-linejoin="round"/>
<path d="M177.005 198.338L181.666 192.597L182.957 199.076L186.065 191.201L188.778 199.128L190.095 188.883L191.859 198.049L194.967 191.385L195.151 195.204" stroke="#ED1F23" stroke-width="3.82303" stroke-miterlimit="22.926" stroke-linecap="round" stroke-linejoin="round"/>
<path d="M98.1482 149.297C109.553 147.927 119.798 142.344 128.964 132.704" stroke="#110F0D" stroke-width="3.82303" stroke-miterlimit="22.926" stroke-linecap="round"/>
<path d="M186.328 149.297C174.924 147.927 164.652 142.344 155.486 132.704" stroke="#110F0D" stroke-width="3.82303" stroke-miterlimit="22.926" stroke-linecap="round"/>
<path fill-rule="evenodd" clip-rule="evenodd" d="M45.9461 73.5486L66.6478 52.8468C78.0522 64.2775 78.0522 82.7932 66.6478 94.2503C55.1907 105.655 36.6751 105.655 25.2443 94.2503L45.9461 73.5486Z" fill="#341B14"/>
<path fill-rule="evenodd" clip-rule="evenodd" d="M238.109 73.5487L217.407 52.8469C205.976 64.2777 205.976 82.7934 217.407 94.2504C228.838 105.655 247.38 105.655 258.811 94.2504L238.109 73.5487Z" fill="#341B14"/>
<path d="M45.9461 73.5485L66.6478 52.8468C78.0522 64.2775 78.0522 82.7932 66.6478 94.2503C55.1907 105.655 36.675 105.655 25.2443 94.2503L45.9461 73.5485Z" stroke="black" stroke-width="6.68862" stroke-miterlimit="22.926"/>
<path d="M238.109 73.5485L217.407 52.8468C205.976 64.2775 205.976 82.7932 217.407 94.2503C228.838 105.655 247.38 105.655 258.811 94.2503L238.109 73.5485Z" stroke="black" stroke-width="6.68862" stroke-miterlimit="22.926"/>
</svg>
