<svg width="284" height="284" viewBox="0 0 284 284" fill="none" xmlns="http://www.w3.org/2000/svg">
<path fill-rule="evenodd" clip-rule="evenodd" d="M129.543 62.9871H149.534C194.598 62.9871 231.445 99.8604 231.445 144.925C231.445 189.963 194.598 226.836 149.534 226.836H129.543C84.5051 226.836 47.6317 189.963 47.6317 144.925C47.6317 99.8604 84.5051 62.9871 129.543 62.9871Z" fill="#FBCA8F"/>
<path fill-rule="evenodd" clip-rule="evenodd" d="M51.1873 164.599H101.572C99.3334 142.08 123.907 130.992 135.917 151.351C135.285 129.807 153.59 128.305 166.048 145.531L230.208 145.873C229.18 89.6938 190.753 64.5409 154.248 61.2223L126.567 61.1169C78.6317 61.7227 36.2273 110.527 51.1873 164.599Z" fill="#341B14"/>
<path d="M129.543 62.987H149.534C194.598 62.987 231.445 99.8604 231.445 144.925C231.445 189.963 194.598 226.836 149.534 226.836H129.543C84.5051 226.836 47.6317 189.963 47.6317 144.925C47.6317 99.8604 84.5051 62.987 129.543 62.987Z" stroke="black" stroke-width="6.68862" stroke-miterlimit="22.926"/>
<path d="M49.291 161.254H131.255" stroke="black" stroke-width="6.68862" stroke-miterlimit="22.926"/>
<path d="M148.059 145.346H229.812" stroke="black" stroke-width="6.68862" stroke-miterlimit="22.926"/>
<path fill-rule="evenodd" clip-rule="evenodd" d="M92.5909 181.167C102.389 173.871 115.215 174.477 132.203 185.907C131.045 183.906 129.333 182.484 127.752 181.483C145.478 171.369 138.762 141.37 122.195 139.789C104.364 138.104 95.8831 157.173 103.811 174.266C98.9647 175.425 95.3827 177.901 92.5909 181.167Z" fill="#110F0D"/>
<path fill-rule="evenodd" clip-rule="evenodd" d="M104.364 154.67C113.714 162.123 123.143 152.22 115.979 142.765C135.048 135.39 146.163 169.393 126.672 180.613C113.74 174.608 110.817 175.424 105.444 174.555C102.362 167.918 101.651 161.281 104.364 154.67Z" fill="white"/>
<path fill-rule="evenodd" clip-rule="evenodd" d="M113.977 146.426C115.242 146.426 116.295 147.453 116.295 148.718C116.295 149.982 115.242 151.009 113.977 151.009C112.713 151.009 111.686 149.982 111.686 148.718C111.686 147.453 112.713 146.426 113.977 146.426Z" fill="white"/>
<path fill-rule="evenodd" clip-rule="evenodd" d="M105.049 134.864C110.264 129.57 112.107 125.461 118.85 123.828C120.325 123.565 119.719 120.141 117.454 120.747C112.74 122.011 108.789 127.805 105.049 134.864Z" fill="white"/>
<path fill-rule="evenodd" clip-rule="evenodd" d="M138.551 137.366C146.4 126.515 167.576 134.653 169.314 157.357C176.03 151.378 181.903 150.035 186.96 153.143C178.901 151.536 171.711 155.671 165.548 162.598C162.071 166.496 158.726 170.631 156.118 176.452C156.224 173.976 157.014 171.711 158.726 169.736C140.579 169.314 130.017 149.139 138.551 137.366Z" fill="#110F0D"/>
<path fill-rule="evenodd" clip-rule="evenodd" d="M146.689 135.575C153.59 134.837 165.152 138.946 168.234 158.621C164.547 161.36 161.913 164.81 159.858 168.629C147.69 167.813 139.71 161.149 137.339 150.614C146.979 153.59 153.169 143.266 146.689 135.575Z" fill="white"/>
<path fill-rule="evenodd" clip-rule="evenodd" d="M144.556 138.156C145.82 138.156 146.847 139.183 146.847 140.474C146.847 141.738 145.82 142.765 144.556 142.765C143.292 142.765 142.238 141.738 142.238 140.474C142.238 139.183 143.292 138.156 144.556 138.156Z" fill="white"/>
<path fill-rule="evenodd" clip-rule="evenodd" d="M144.214 128.464C138.867 125.224 136.497 122.195 130.649 122.274C129.385 122.353 129.175 119.43 131.176 119.456C135.285 119.535 139.71 123.433 144.214 128.464Z" fill="white"/>
<path fill-rule="evenodd" clip-rule="evenodd" d="M80.291 195.073C82.319 191.991 84.3734 190.621 86.4014 191.227C113.767 224.966 177.795 223.202 188.119 166.601C189.489 164.757 193.308 165.837 198.365 168.445C191.728 160.807 181.271 164.204 175.372 175.135C179.033 171.105 182.72 168.129 186.407 166.522C183.089 185.011 174.292 198.418 160.043 205.74C137.787 217.197 106.287 213.035 88.8245 191.148C91.6427 190.49 97.0684 191.649 103.995 193.835C87.692 186.513 81.1075 188.119 80.291 195.073Z" fill="#110F0D"/>
</svg>
