<svg width="284" height="284" viewBox="0 0 284 284" fill="none" xmlns="http://www.w3.org/2000/svg">
<path fill-rule="evenodd" clip-rule="evenodd" d="M132.23 70.6512H151.825C195.968 70.6512 232.104 106.761 232.104 150.93C232.104 195.072 195.968 231.208 151.825 231.208H132.23C88.0871 231.208 51.9775 195.072 51.9775 150.93C51.9775 106.761 88.0871 70.6512 132.23 70.6512Z" fill="#FBCA8F"/>
<path fill-rule="evenodd" clip-rule="evenodd" d="M132.23 70.5197H151.825C195.968 70.5197 235.923 112.74 232.104 150.798L230.471 166.943H150.377L141.869 148.876L133.915 166.943H53.5841L51.9775 150.798C48.2638 113.951 86.4804 70.5197 132.23 70.5197Z" fill="#341B14"/>
<path d="M114.926 216.196C127.146 203.738 158.278 203.132 171.184 216.196" stroke="#110F0D" stroke-width="3.82303" stroke-miterlimit="22.926" stroke-linecap="round"/>
<path d="M53.5841 166.943H133.915L141.869 148.875L150.061 166.943H230.471" stroke="black" stroke-width="6.68862" stroke-miterlimit="22.926"/>
<path fill-rule="evenodd" clip-rule="evenodd" d="M176.03 162.018C169.182 160.121 162.624 157.119 156.25 151.166C154.064 149.112 151.246 149.375 149.876 151.614C145.847 158.199 144.293 165.652 144.688 173.001C144.951 178.611 146.031 184.142 149.955 189.146C153.511 193.676 158.384 194.335 163.388 194.15C168.129 193.992 172.975 193.228 176.952 189.567C180.824 185.985 180.929 178.347 180.429 168.734C180.271 165.468 179.164 162.913 176.03 162.018Z" fill="white"/>
<path d="M176.03 162.018C169.182 160.122 162.624 157.119 156.25 151.167C154.064 149.113 151.246 149.376 149.876 151.615C145.847 158.199 144.293 165.653 144.688 173.001C144.951 178.611 146.031 184.142 149.955 189.146C153.511 193.677 158.384 194.335 163.388 194.151C168.129 193.993 172.975 193.229 176.952 189.568C180.824 185.986 180.929 178.348 180.429 168.734C180.271 165.469 179.164 162.914 176.03 162.018Z" stroke="#110F0D" stroke-width="3.82303" stroke-miterlimit="22.926"/>
<path fill-rule="evenodd" clip-rule="evenodd" d="M153.616 176.583C150.693 176.583 148.322 180.165 148.322 184.564C148.322 188.988 150.693 192.57 153.616 192.57C156.54 192.57 158.91 188.988 158.91 184.564C158.91 180.165 156.54 176.583 153.616 176.583Z" fill="black"/>
<path fill-rule="evenodd" clip-rule="evenodd" d="M153.616 177.716C151.904 177.716 150.535 179.085 150.535 180.771C150.535 182.457 151.904 183.826 153.616 183.826C155.328 183.826 156.698 182.457 156.698 180.771C156.698 179.085 155.328 177.716 153.616 177.716Z" fill="white"/>
<path fill-rule="evenodd" clip-rule="evenodd" d="M108.13 162.018C114.978 160.121 121.536 157.119 127.91 151.166C130.07 149.112 132.915 149.375 134.284 151.614C138.314 158.199 139.868 165.652 139.499 173.001C139.209 178.611 138.129 184.142 134.205 189.146C130.649 193.676 125.777 194.335 120.773 194.15C116.032 193.992 111.186 193.228 107.209 189.567C103.337 185.985 103.231 178.347 103.732 168.734C103.89 165.468 104.97 162.913 108.13 162.018Z" fill="white"/>
<path d="M108.13 162.018C114.978 160.122 121.536 157.119 127.91 151.167C130.07 149.113 132.915 149.376 134.284 151.615C138.314 158.199 139.868 165.653 139.499 173.001C139.209 178.611 138.129 184.142 134.205 189.146C130.649 193.677 125.777 194.335 120.773 194.151C116.032 193.993 111.186 193.229 107.209 189.568C103.337 185.986 103.231 178.348 103.732 168.734C103.89 165.469 104.97 162.914 108.13 162.018Z" stroke="#110F0D" stroke-width="3.82303" stroke-miterlimit="22.926"/>
<path fill-rule="evenodd" clip-rule="evenodd" d="M130.544 176.583C133.468 176.583 135.838 180.165 135.838 184.564C135.838 188.988 133.468 192.57 130.544 192.57C127.621 192.57 125.25 188.988 125.25 184.564C125.25 180.165 127.621 176.583 130.544 176.583Z" fill="black"/>
<path fill-rule="evenodd" clip-rule="evenodd" d="M130.544 177.716C132.256 177.716 133.626 179.085 133.626 180.771C133.626 182.457 132.256 183.826 130.544 183.826C128.832 183.826 127.463 182.457 127.463 180.771C127.463 179.085 128.832 177.716 130.544 177.716Z" fill="white"/>
<path d="M132.256 70.6511H151.825C195.968 70.6511 232.104 106.761 232.104 150.93C232.104 195.072 195.968 231.208 151.825 231.208H132.256C88.0871 231.208 51.9775 195.072 51.9775 150.93C51.9775 106.761 88.0871 70.6511 132.256 70.6511Z" stroke="black" stroke-width="6.68862" stroke-miterlimit="22.926"/>
<path d="M97.9375 159.227C109.342 157.857 119.614 152.247 128.779 142.634" stroke="#110F0D" stroke-width="3.82303" stroke-miterlimit="22.926" stroke-linecap="round"/>
<path d="M186.117 159.227C174.713 157.857 164.468 152.247 155.302 142.634" stroke="#110F0D" stroke-width="3.82303" stroke-miterlimit="22.926" stroke-linecap="round"/>
<path fill-rule="evenodd" clip-rule="evenodd" d="M45.9461 73.5486L66.6478 52.8468C78.0786 64.2775 78.0786 82.7932 66.6478 94.2503C55.2171 105.655 36.6751 105.655 25.2443 94.2503L45.9461 73.5486Z" fill="#341B14"/>
<path fill-rule="evenodd" clip-rule="evenodd" d="M238.109 73.5487L217.434 52.8469C206.003 64.2777 206.003 82.7934 217.434 94.2504C228.864 105.655 247.38 105.655 258.811 94.2504L238.109 73.5487Z" fill="#341B14"/>
<path d="M45.9461 73.5485L66.6478 52.8468C78.0786 64.2775 78.0786 82.7932 66.6478 94.2503C55.2171 105.655 36.675 105.655 25.2443 94.2503L45.9461 73.5485Z" stroke="black" stroke-width="6.68862" stroke-miterlimit="22.926"/>
<path d="M238.109 73.5485L217.434 52.8468C206.003 64.2775 206.003 82.7932 217.434 94.2503C228.864 105.655 247.38 105.655 258.811 94.2503L238.109 73.5485Z" stroke="black" stroke-width="6.68862" stroke-miterlimit="22.926"/>
</svg>
