<svg width="284" height="284" viewBox="0 0 284 284" fill="none" xmlns="http://www.w3.org/2000/svg">
<path fill-rule="evenodd" clip-rule="evenodd" d="M129.795 61.2485H149.786C194.824 61.2485 231.697 98.0956 231.697 143.16C231.697 188.198 194.824 225.072 149.786 225.072H129.795C84.7569 225.072 47.8836 188.198 47.8836 143.16C47.8836 98.0956 84.7569 61.2485 129.795 61.2485Z" fill="#FBCA8F"/>
<path fill-rule="evenodd" clip-rule="evenodd" d="M129.795 61.1169H149.786C194.824 61.1169 235.595 104.18 231.697 143.055L230.038 159.49H148.285L139.619 141.079L131.507 159.49H49.543L47.8837 143.055C44.1173 105.444 83.0978 61.1169 129.795 61.1169Z" fill="#341B14"/>
<path d="M49.5429 159.49H131.507L139.619 141.08L148.284 159.49H230.038" stroke="black" stroke-width="6.68862" stroke-miterlimit="22.926"/>
<path d="M129.795 61.2486H149.786C194.824 61.2486 231.697 98.0956 231.697 143.16C231.697 188.198 194.824 225.072 149.786 225.072H129.795C84.7569 225.072 47.8836 188.198 47.8836 143.16C47.8836 98.0956 84.7569 61.2486 129.795 61.2486Z" stroke="black" stroke-width="6.68862" stroke-miterlimit="22.926"/>
<path fill-rule="evenodd" clip-rule="evenodd" d="M148.495 180.403C158.267 169.235 169.039 168.366 180.812 180.403C181.866 181.482 183.894 180.771 182.893 179.454C170.593 163.257 157.055 162.835 146.731 179.507C145.782 181.035 147.284 181.825 148.495 180.403Z" fill="black"/>
<path fill-rule="evenodd" clip-rule="evenodd" d="M98.479 180.403C108.25 169.235 119.023 168.366 130.796 180.403C131.823 181.482 133.877 180.771 132.877 179.454C120.577 163.257 107.039 162.835 96.7143 179.507C95.7661 181.035 97.2411 181.825 98.479 180.403Z" fill="black"/>
<path fill-rule="evenodd" clip-rule="evenodd" d="M88.102 184.459C110.674 216.433 139.856 223.492 167.643 206.794C169.065 204.16 171.199 202.184 173.938 200.789C176.124 197.022 179.495 193.888 185.974 192.439C188.529 190.359 190.952 188.146 192.533 185.354C190.768 184.933 188.819 185.012 186.686 185.591C183.657 186.513 183.341 184.169 185.342 183.537C193.165 181.088 198.564 184.116 200.039 190.122C200.487 191.649 198.801 191.939 198.353 190.78C197.326 187.777 195.957 186.487 194.376 186.434C193.007 188.489 191.4 190.517 189.477 192.545C196.325 193.598 202.541 196.627 208.019 201.789C217.528 210.639 208.019 227.838 194.139 221.991C181.76 211.745 171.857 205.74 167.88 209.875C137.881 225.889 107.566 217.856 86.1267 185.328C84.6781 186.224 83.4402 187.567 82.4657 189.516C81.8599 190.464 80.0426 189.937 80.622 188.62C83.1505 182.984 88.181 180.508 94.7919 183.168C96.1352 183.932 95.0816 185.486 93.8174 184.854C91.842 184.09 89.735 183.958 88.102 184.459Z" fill="#110F0D"/>
<path fill-rule="evenodd" clip-rule="evenodd" d="M170.988 206.214C175.729 207.109 183.024 210.638 194.508 220.278C203.911 225.704 215.42 212.535 207.598 204.423C193.797 191.754 184.078 191.096 177.072 200.288C181.681 200.024 186.106 201.078 190.373 203.553C191.268 204.133 190.531 205.766 188.872 204.87C184.183 202.553 173.701 199.787 170.988 206.214Z" fill="#ED1C24"/>
</svg>
