<svg width="284" height="284" viewBox="0 0 284 284" fill="none" xmlns="http://www.w3.org/2000/svg">
<path fill-rule="evenodd" clip-rule="evenodd" d="M132.243 70.6512H151.812C195.955 70.6512 232.091 106.761 232.091 150.93C232.091 195.072 195.955 231.208 151.812 231.208H132.243C88.0739 231.208 51.9644 195.072 51.9644 150.93C51.9644 106.761 88.0739 70.6512 132.243 70.6512Z" fill="#FBCA8F"/>
<path fill-rule="evenodd" clip-rule="evenodd" d="M132.243 70.5197H151.812C195.955 70.5197 235.91 112.74 232.091 150.798L230.484 166.943H150.363L141.856 148.876L133.902 166.943H53.5709L51.9643 150.798C48.2506 113.951 86.4672 70.5197 132.243 70.5197Z" fill="#341B14"/>
<path fill-rule="evenodd" clip-rule="evenodd" d="M131.874 203.211C138.801 206.662 145.912 206.451 152.945 203.132C154.077 202.606 154.841 202.711 154.815 203.527C154.578 211.85 152.365 219.357 146.992 225.098C143.884 228.417 140.618 228.522 137.59 225.098C132.928 219.831 130.189 213.036 130.136 203.896C130.136 202.606 130.61 202.579 131.874 203.211Z" fill="#110F0D"/>
<path fill-rule="evenodd" clip-rule="evenodd" d="M134.166 216.407C139.328 212.404 144.727 212.614 150.285 216.407C149.31 219.172 147.94 221.885 145.754 224.124C143.542 226.336 141.066 226.521 138.722 224.124C136.536 221.833 135.087 219.251 134.166 216.407Z" fill="#ED1C24"/>
<path d="M53.571 166.943H133.902L141.856 148.875L150.364 166.943H230.484" stroke="black" stroke-width="6.68862" stroke-miterlimit="22.926"/>
<path fill-rule="evenodd" clip-rule="evenodd" d="M150.758 184.011C160.319 173.054 170.881 172.211 182.417 184.011C183.444 185.038 185.446 184.353 184.471 183.063C172.408 167.181 159.134 166.759 149.02 183.115C148.098 184.617 149.547 185.381 150.758 184.011Z" fill="black"/>
<path fill-rule="evenodd" clip-rule="evenodd" d="M116.756 151.43C121.55 148.717 129.952 148.217 132.533 154.196C135.43 160.859 135.93 182.167 130.215 190.147C125.553 196.679 112.358 195.231 106.274 191.701C100.137 188.172 96.2652 180.876 100.716 169.604C104.114 160.991 110.198 155.17 116.756 151.43Z" fill="white"/>
<path d="M116.756 151.43C121.55 148.717 129.952 148.217 132.533 154.196C135.43 160.859 135.93 182.167 130.215 190.147C125.553 196.679 112.358 195.231 106.274 191.701C100.137 188.172 96.2652 180.876 100.716 169.604C104.114 160.991 110.198 155.17 116.756 151.43Z" stroke="#110F0D" stroke-width="3.82303" stroke-miterlimit="22.926"/>
<path fill-rule="evenodd" clip-rule="evenodd" d="M127.318 166.575C130.241 166.575 132.638 170.157 132.638 174.555C132.638 178.98 130.241 182.562 127.318 182.562C124.394 182.562 122.024 178.98 122.024 174.555C122.024 170.157 124.394 166.575 127.318 166.575Z" fill="black"/>
<path fill-rule="evenodd" clip-rule="evenodd" d="M127.318 167.707C129.03 167.707 130.426 169.077 130.426 170.763C130.426 172.448 129.03 173.818 127.318 173.818C125.632 173.818 124.236 172.448 124.236 170.763C124.236 169.077 125.632 167.707 127.318 167.707Z" fill="white"/>
<path d="M132.243 70.6511H151.812C195.955 70.6511 232.091 106.761 232.091 150.93C232.091 195.072 195.955 231.208 151.812 231.208H132.243C88.0739 231.208 51.9644 195.072 51.9644 150.93C51.9644 106.761 88.0739 70.6511 132.243 70.6511Z" stroke="black" stroke-width="6.68862" stroke-miterlimit="22.926"/>
<path fill-rule="evenodd" clip-rule="evenodd" d="M45.9329 73.5486L66.6347 52.8468C78.0654 64.2775 78.0654 82.7932 66.6347 94.2503C55.2039 105.655 36.6883 105.655 25.2312 94.2503L45.9329 73.5486Z" fill="#341B14"/>
<path fill-rule="evenodd" clip-rule="evenodd" d="M238.122 73.5487L217.42 52.8469C205.99 64.2777 205.99 82.7934 217.42 94.2504C228.851 105.655 247.367 105.655 258.824 94.2504L238.122 73.5487Z" fill="#341B14"/>
<path d="M45.9329 73.5485L66.6347 52.8468C78.0654 64.2775 78.0654 82.7932 66.6347 94.2503C55.2039 105.655 36.6883 105.655 25.2312 94.2503L45.9329 73.5485Z" stroke="black" stroke-width="6.68862" stroke-miterlimit="22.926"/>
<path d="M238.122 73.5485L217.42 52.8468C205.99 64.2775 205.99 82.7932 217.42 94.2503C228.851 105.655 247.367 105.655 258.824 94.2503L238.122 73.5485Z" stroke="black" stroke-width="6.68862" stroke-miterlimit="22.926"/>
</svg>
