<svg width="284" height="284" viewBox="0 0 284 284" fill="none" xmlns="http://www.w3.org/2000/svg">
<path fill-rule="evenodd" clip-rule="evenodd" d="M132.23 70.6511H151.825C195.968 70.6511 232.104 106.787 232.104 150.93C232.104 195.072 195.968 231.208 151.825 231.208H132.23C88.0871 231.208 51.9512 195.072 51.9512 150.93C51.9512 106.787 88.0871 70.6511 132.23 70.6511Z" fill="#FBCA8F"/>
<path fill-rule="evenodd" clip-rule="evenodd" d="M132.23 70.546H151.825C195.968 70.546 235.923 112.74 232.104 150.825L230.471 166.944H150.35L141.869 148.876L133.915 166.944H53.5841L51.9511 150.825C48.2638 113.951 86.4804 70.546 132.23 70.546Z" fill="#341B14"/>
<path d="M114.899 206.635C127.146 219.093 158.278 219.725 171.184 206.635" stroke="#110F0D" stroke-width="3.82303" stroke-miterlimit="22.926" stroke-linecap="round"/>
<path d="M53.5841 166.943H133.915L141.869 148.875L150.061 166.943H230.471" stroke="black" stroke-width="6.68862" stroke-miterlimit="22.926"/>
<path fill-rule="evenodd" clip-rule="evenodd" d="M121.773 151.904C126.435 149.271 134.653 148.77 137.155 154.591C139.973 161.123 140.474 181.877 134.89 189.673C130.333 196.021 117.48 194.625 111.528 191.175C105.549 187.724 101.757 180.639 106.102 169.63C109.421 161.254 115.347 155.565 121.773 151.904Z" fill="white"/>
<path d="M121.773 151.904C126.435 149.27 134.653 148.77 137.155 154.591C139.973 161.123 140.474 181.877 134.89 189.673C130.333 196.021 117.48 194.625 111.528 191.174C105.549 187.724 101.757 180.639 106.102 169.63C109.421 161.254 115.347 155.565 121.773 151.904Z" stroke="#110F0D" stroke-width="3.82303" stroke-miterlimit="22.926"/>
<path fill-rule="evenodd" clip-rule="evenodd" d="M162.281 151.904C157.62 149.271 149.402 148.77 146.9 154.591C144.082 161.123 143.581 181.877 149.165 189.673C153.722 196.021 166.601 194.625 172.527 191.175C178.506 187.724 182.298 180.639 177.926 169.63C174.608 161.254 168.708 155.565 162.281 151.904Z" fill="white"/>
<path d="M162.281 151.904C157.62 149.27 149.402 148.77 146.9 154.591C144.082 161.123 143.581 181.877 149.165 189.673C153.722 196.021 166.601 194.625 172.527 191.174C178.506 187.724 182.298 180.639 177.926 169.63C174.608 161.254 168.708 155.565 162.281 151.904Z" stroke="#110F0D" stroke-width="3.82303" stroke-miterlimit="22.926"/>
<path fill-rule="evenodd" clip-rule="evenodd" d="M132.072 166.469C134.995 166.469 137.366 170.051 137.366 174.45C137.366 178.874 134.995 182.456 132.072 182.456C129.148 182.456 126.778 178.874 126.778 174.45C126.778 170.051 129.148 166.469 132.072 166.469Z" fill="black"/>
<path fill-rule="evenodd" clip-rule="evenodd" d="M132.072 167.602C133.784 167.602 135.153 168.971 135.153 170.657C135.153 172.343 133.784 173.712 132.072 173.712C130.36 173.712 128.99 172.343 128.99 170.657C128.99 168.971 130.36 167.602 132.072 167.602Z" fill="white"/>
<path fill-rule="evenodd" clip-rule="evenodd" d="M151.852 166.469C154.775 166.469 157.172 170.051 157.172 174.45C157.172 178.874 154.775 182.456 151.852 182.456C148.928 182.456 146.558 178.874 146.558 174.45C146.558 170.051 148.928 166.469 151.852 166.469Z" fill="black"/>
<path fill-rule="evenodd" clip-rule="evenodd" d="M151.852 167.602C153.564 167.602 154.96 168.971 154.96 170.657C154.96 172.343 153.564 173.712 151.852 173.712C150.166 173.712 148.77 172.343 148.77 170.657C148.77 168.971 150.166 167.602 151.852 167.602Z" fill="white"/>
<path fill-rule="evenodd" clip-rule="evenodd" d="M45.9461 73.5486L66.6478 52.8468C78.0786 64.2775 78.0786 82.8196 66.6478 94.2503C55.2171 105.681 36.6751 105.681 25.2443 94.2503L45.9461 73.5486Z" fill="#341B14"/>
<path fill-rule="evenodd" clip-rule="evenodd" d="M238.109 73.5486L217.407 52.8468C206.003 64.2775 206.003 82.8196 217.407 94.2503C228.864 105.681 247.38 105.681 258.811 94.2503L238.109 73.5486Z" fill="#341B14"/>
<path d="M45.9461 73.5484L66.6478 52.8467C78.0786 64.2774 78.0786 82.8194 66.6478 94.2502C55.2171 105.681 36.675 105.681 25.2443 94.2502L45.9461 73.5484Z" stroke="black" stroke-width="6.68862" stroke-miterlimit="22.926"/>
<path d="M238.109 73.5484L217.407 52.8467C206.003 64.2774 206.003 82.8194 217.407 94.2502C228.864 105.681 247.38 105.681 258.811 94.2502L238.109 73.5484Z" stroke="black" stroke-width="6.68862" stroke-miterlimit="22.926"/>
<path d="M132.23 70.6511H151.825C195.968 70.6511 232.104 106.787 232.104 150.93C232.104 195.072 195.968 231.208 151.825 231.208H132.23C88.0871 231.208 51.9512 195.072 51.9512 150.93C51.9512 106.787 88.0871 70.6511 132.23 70.6511Z" stroke="black" stroke-width="6.68862" stroke-miterlimit="22.926"/>
</svg>
